<svg width="220" height="65" viewBox="0 0 220 65" fill="none" xmlns="http://www.w3.org/2000/svg">
<g clip-path="url(#clip0_25_2)">
<path d="M134.4 45.2L135.8 50.7H138.4L140.6 42.1H138.6L137.2 47.7L135.9 42.1H133.2L131 50.7H133L134.4 45.2ZM129.9 42.1H127.2L121.6 50.7H124.1L125.6 48.2H128.3L128.5 50.7H130.9C130.4 47.8 130.1 44.9 129.9 42.1ZM126.5 46.4L128 44L128.2 46.4H126.5V46.4ZM142.9 48.2C142.7 48.9 142 48.9 141.7 48.9C141.1 48.9 140.5 48.7 140 48.4L139.5 50.4C140.1 50.6 141.1 50.8 141.8 50.8C144.2 50.8 144.9 49.8 145.2 48.6C145.6 46.6 143.2 45.5 143.5 44.4C143.6 43.9 144.3 43.8 144.6 43.8C145.3 43.8 145.6 44 146.1 44.3L146.6 42.5C145.988 42.1615 145.299 41.9891 144.6 42C142.6 42 141.5 43.2 141.4 44.2C140.8 46.1 143.1 47.2 142.9 48.2V48.2ZM122.1 48.6C122.5 46.6 120.1 45.5 120.4 44.4C120.5 43.9 121.2 43.8 121.5 43.8C122.2 43.8 122.5 44 123 44.3L123.6 42.6C122.969 42.2091 122.242 42.0013 121.5 42C119.5 42 118.4 43.2 118.3 44.2C117.9 46.2 120.3 47.3 120 48.2C119.8 48.9 119.1 48.9 118.8 48.9C118.2 48.9 117.6 48.7 117.1 48.4L116.6 50.4C117.2 50.6 118.2 50.8 118.9 50.8C121.2 50.8 121.9 49.7 122.1 48.6V48.6ZM174.7 50.6L176.1 45.2L177.5 50.6H180.2L182.3 42H180.3L178.9 47.6H178.8L177.5 42H174.8L172.6 50.6H174.7ZM152.9 47.2H155.6L156.1 45.3H153.4L153.8 43.8H157L157.5 41.9H152L149.8 50.5H152.1L152.9 47.2V47.2ZM189.5 42H183.1L182.6 43.9H184.7L183 50.6H185.3L187 43.9H189L189.5 42ZM190.3 42L188.1 50.6H190.4L192.6 42H190.3ZM197.6 47.2L198.1 45.3H195.3L195.7 43.8H199.3L199.8 41.9H194L191.8 50.5H197.6L198.1 48.7H194.6L194.9 47.1L197.6 47.2V47.2ZM212.1 47.2L212.6 45.3H209.7L210.1 43.8H213.7L214.2 41.9H208.4L206.2 50.5H212L212.5 48.6H208.9L209.3 47.1L212.1 47.2V47.2ZM167.6 50.8C170 50.8 172.2 49.4 173 46.6C173.8 43.6 172.4 41.9 169.9 41.9C167.4 41.9 165.2 43.5 164.5 46.3C163.7 49.2 165 50.8 167.6 50.8V50.8ZM166.6 46.4C166.9 45.1 167.9 43.9 169.3 43.9C170.6 43.9 171 45.1 170.7 46.4C170.4 47.8 169.3 48.9 168 48.9C166.6 48.9 166.3 47.7 166.6 46.4ZM218 43.7C218.7 43.7 219 43.9 219.5 44.2L220 42.4C219.388 42.0615 218.699 41.8891 218 41.9C216 41.9 214.9 43.1 214.8 44.1C214.4 46.1 216.8 47.2 216.5 48.1C216.3 48.8 215.6 48.8 215.3 48.8C214.7 48.8 214.1 48.6 213.6 48.3L213.1 50.3C213.7 50.5 214.7 50.7 215.4 50.7C217.8 50.7 218.5 49.7 218.8 48.5C219.2 46.5 216.8 45.4 217.1 44.3C216.9 43.9 217.6 43.8 218 43.7V43.7ZM158.4 50.6L159.6 46L160.4 50.6H162.8L162 46.8C163.2 46.6 164 45.6 164.3 44.6C164.8 42.9 164.2 42 162.3 42H158.5L156.3 50.6H158.4ZM160.2 43.8H161.3C161.6 43.8 162.3 43.8 162.1 44.7C161.9 45.4 161.4 45.8 160.4 45.8H159.7L160.2 43.8V43.8ZM206.7 44.6C207.1 42.9 206.6 42 204.7 42H200.9L198.7 50.6H200.8L202 46L202.8 50.6H205.2L204.4 46.8C205.5 46.7 206.4 45.6 206.7 44.6V44.6ZM204.5 44.7C204.3 45.4 203.8 45.8 202.8 45.8H202.1L202.6 43.8H203.7C204 43.8 204.7 43.8 204.5 44.7V44.7ZM86 50.6L86.5 48.8H82.9L83.3 47.2H86.2L86.7 45.3H83.8L84.2 43.8H87.7L88.2 41.9H82.4L80.2 50.5L86 50.6V50.6ZM70.8 50.6L71.3 48.8H67.7L68.1 47.2H71L71.5 45.3H68.6L68.9 43.8H72.5L73 42H67.2L65 50.6H70.8ZM93.6 48.5C92.9 48.7 92.3 48.8 91.3 48.8C89.9 48.8 89.6 47.6 89.9 46.3C90.0582 45.5943 90.4508 44.963 91.0137 44.509C91.5767 44.055 92.2768 43.8051 93 43.8C93.6 43.8 94.1 44 94.6 44.1L95.1 42.2C94.6 42 93.7 41.9 93.1 41.9C90.6 41.9 88.4 43.5 87.6 46.3C86.8 49.1 88.2 50.8 90.8 50.8L93 50.6L93.6 48.5V48.5ZM96.4 50.6L98.6 42H96.3L94.1 50.6H96.4ZM58.4 44.5L58.3 50.6H60.2L63.3 44.5L61.7 50.6H63.6L65.8 42.1H62.8L60.1 47.4L60.2 42.1H57L55 50.6H56.9L58.4 44.5V44.5ZM99.7 50.6L101.1 45.2H101.2L102.6 50.6H105.2L107.4 42H105.4L104 47.6L102.7 42H100L97.8 50.6H99.7V50.6ZM75.6 50.6C78.1 50.6 79.7 48.8 80.3 46.3C81.2 42.7 79.3 42 78.2 42H74.1L72 50.6H75.6ZM75.9 43.9H77.1C78.3 43.9 78.5 44.8 78.1 46.3C77.8 47.6 76.9 48.7 75.6 48.7H74.6L75.9 43.9ZM109.6 48.2C109.4 48.9 108.7 48.9 108.4 48.9C107.8 48.9 107.2 48.7 106.7 48.4L106.2 50.4C106.8 50.6 107.8 50.8 108.5 50.8C110.9 50.8 111.6 49.8 111.9 48.6C112.3 46.6 109.9 45.5 110.2 44.4C110.3 43.9 111 43.8 111.3 43.8C112 43.8 112.3 44 112.8 44.3L113.3 42.5C112.688 42.1615 111.999 41.9891 111.3 42C109.3 42 108.2 43.2 108.1 44.2C107.6 46.1 109.9 47.2 109.6 48.2V48.2ZM96.6 56.1C95.3304 56.0975 94.0989 56.5342 93.1147 57.3362C92.1304 58.1382 91.4539 59.256 91.2 60.5C90.4 63.3 91.8 65 94.4 65C96.8 65 99 63.6 99.8 60.8C100.5 57.7 99.1 56.1 96.6 56.1ZM97.5 60.5C97.2 61.9 96.1 63 94.8 63C93.4 63 93.1 61.8 93.4 60.5C93.7 59.2 94.7 58 96.1 58C97.4 57.9 97.8 59.1 97.5 60.5ZM115.6 56.2L114.2 61.8L112.9 56.2H110.2L108 64.8H110L111.4 59.4H111.5L112.9 64.8H115.5L117.7 56.2H115.6ZM116.5 64.8H122.3L122.8 62.9H119.2L119.6 61.4H122.5L123 59.5H120.1L120.5 58H124L124.5 56.1H118.7L116.5 64.8V64.8ZM106.6 56.2L105.8 59.4H102.9L103.7 56.2H101.6L99.4 64.8H101.5L102.4 61.3H105.4L104.5 64.8H106.8L109 56.2H106.6V56.2ZM144.2 58.8C144.6 57.1 144.1 56.2 142.2 56.2H138.4L136.2 64.8H138.3L139.5 60.2L140.3 64.8H142.7L141.9 61C142.456 60.8975 142.97 60.6346 143.379 60.2437C143.787 59.8529 144.073 59.351 144.2 58.8V58.8ZM142 58.9C141.8 59.6 141.3 60 140.3 60H139.6L140.1 58H141.2C141.6 58 142.3 58 142 58.9V58.9ZM132.7 61.6H133.7L133.4 62.9C133.1 63.1 132.6 63.1 132.3 63.1C131.1 63.1 130.4 62.3 130.9 60.7C131.4 58.9 132.7 57.9 134.3 57.9C135.1 57.9 135.9 58.2 136.6 58.6L137.1 56.6C136.3 56.4 135.2 56 134.2 56C131.6 56 129.4 57.6 128.6 60.5C127.8 63.3 129.2 65 131.6 65C133 65 134 64.8 135.1 64.7L136.3 59.9H133.3L132.7 61.6V61.6ZM167.3 58.1L167.8 56.2H161.6L161.1 58.1H164.5L159.7 63L159.2 64.9H165.7L166.2 63H162.6L167.3 58.1V58.1ZM158.2 56.2L156.8 61.8L155.5 56.2H152.8L150.6 64.8H152.6L154 59.4L155.4 64.8H158L160.2 56.2H158.2V56.2ZM149.7 61.4L150.2 59.5H147.3L147.7 58H151.2L151.7 56.1H145.9L143.7 64.7H149.5L150 62.8H146.4L146.8 61.3L149.7 61.4V61.4ZM179.9 61.8L178.6 56.2H175.9L173.7 64.8H175.7L177.1 59.4L178.5 64.8H181.2L183.3 56.2H181.3L179.9 61.8V61.8ZM172.8 61.4L173.3 59.5H170.4L170.8 58H174.3L174.8 56.1H169L166.8 64.7H172.6L173.1 62.8H169.5L169.9 61.3L172.8 61.4V61.4ZM53.5 56.2L47.8 64.8H50.3L51.8 62.3H54.5L54.7 64.8H57.1C56.8 62 56.4 59.1 56.2 56.2H53.5V56.2ZM52.9 60.5L54.4 58.1L54.6 60.5H52.9ZM55.1 54.1H53.9L53.6 55.4H54.9L55.1 54.1ZM56.4 55.4L56.7 54.1H55.4L55.1 55.4H56.4ZM65.6 58.8C66 57.1 65.5 56.2 63.6 56.2H59.8L57.6 64.8H59.7L60.9 60.2L61.7 64.8H64.1L63.3 61C64.5 60.8 65.3 59.8 65.6 58.8ZM61.7 60H61L61.5 58H62.6C62.9 58 63.6 58 63.4 58.9C63.2 59.6 62.7 60 61.7 60V60ZM66.5 58.1H69.9L65 62.9L64.5 64.8H71L71.5 62.9H67.9L72.8 58L73.3 56.1H67L66.5 58.1ZM80.4 56.2H74L73.5 58.1H75.6L73.9 64.8H76.2L77.9 58.1H79.9L80.4 56.2V56.2ZM79 64.8H84.8L85.3 62.9H81.8L82.1 61.4H85.1L85.6 59.5H82.7L83 58H86.6L87.1 56.1H81.3L79 64.8Z" fill="black"/>
<path d="M53.9 53H218.5Z" fill="#E6007E"/>
<path d="M53.9 53H218.5" stroke="#E30613"/>
<path d="M48.7 50.2C48.6 50.1 48.7 50 48.7 50L48.6 49.9L48.7 49.6L48.5 49.2C48.4 49.1 48.5 48.8 48.5 48.8L48.3 48.3L48.1 48L48 47.7V47.2L47.9 46.9L47.8 46.6L47.6 46.1L47.5 45.6C47.3967 45.4884 47.3273 45.3496 47.3 45.2L47 44.7L46.9 44.2L46.8 44C46.6776 43.8615 46.6069 43.6848 46.6 43.5L46.3 43.2L46.2 42.7L45.9 42.4L45.7 42L45 41.1L44.5 40.7L44.3 40.4L43.8 40.1L43.6 39.8L43.3 39.6L42.8 39L42.4 38.8L42.1 38.5L41.9 38.8L41.5 39.8L41.2 40.3L41.1 40.9L40.5 42.2L39.9 43.4L39.6 44.4L39.3 45C39.2019 45.1881 39.1344 45.3907 39.1 45.6L38.8 46L38.6 46.5L38.2 47.1L37.6 48.1L37.4 48.6L37 48.9L36.7 49.6L36.2 50.5L35.8 51.5L35.3 52.4L35 53L34.7 53.4L34 54.6L33.5 55.5L33.1 56.4L32.8 56.8C32.7 56.8 32.5 56.9 32.4 56.8C32.3 56.7 32.6 56.4 32.3 56.3C32 56.2 32.1 56.5 32 56.5L31.7 56.6L31.4 56.8C31.3 56.9 31.2 56.7 31.1 56.7L30.8 56.9L30.5 57C30.2 56.9 30.6 56.6 30.4 56.4C30.3 56.3 30.2 56.6 30.1 56.5L29.8 56.2L29.4 56.1L29.1 55.9L28.7 56C28.5 56.1 28.5 56 28.4 56.2C28.1 56.5 27.9 56.3 27.9 56.1C28 56 27.9 55.8 27.7 55.8C27.6 55.8 27.4 56 27.3 55.9C27.2 55.8 27.4 55.7 27.2 55.6L26.9 55.5L26.7 55.3H26.2C25.8 55.2 25.8 54.5 25.8 54.1C25.8 54 25.6 54 25.3 54.2L23.1 55.4L21 56.6C20.3 57 20.4 57.3 20.3 57.8C20.2 58.4 20.2 59.5 20.8 60.9C21.4 62.5 22.2 63.3 22.8 63.6C23 63.7 23.6 63.4 24.6 62.8L38.8 55.7L48.9 51L48.7 50.6C48.7 50.5 48.8 50.3 48.7 50.2V50.2ZM10.9 30.7L11.1 30.8H11.3L11.5 31.1L11.7 31.4L12 31.5C12.1 31.6 11.9 31.7 12.1 31.9C12.3 32.2 12.1 33.2 12.3 33.2L13.2 33C13.4 32.8 13.6 32.5 13.8 32.5L14.8 32C15 31.9 15.1 31.5 15.4 31.5C15.7 31.5 15.6 31.3 15.7 31.2C15.9 31.1 16.2 31 16.3 31.1C16.4 31.2 16.4 31.3 16.6 31.3C16.8 31.4 17 31.3 17 31.5C17.1 31.8 17.5 31.6 17.5 31.6L18.3 31.1L19.2 30.7L19.9 30.4C27.5 26.8 33.4 24.8 38.9 22.6C47.4 19.3 62.2 15.5 64.9 14.8L65.9 14.6L66.2 14.3C66.3 14.1 66 13.7 66 13.6L66.3 12.7C66.4 12.5 66.1 12.4 66.1 12.4C66.1 12.4 66.2 12.1 66 11.9C65.9 11.7 65.5 11.5 65.5 11.3L65.4 10.5L65.1 10.2C65.1 10.2 65.2 10.1 65.1 10C65 9.8 64.9 9.9 64.9 9.9L65 9.4L64.8 9.2C64.8 9.2 64.6 9.1 64.6 8.9L64.5 8.6L64 8.5L63.5 8.4C63.3 8.5 63.3 8.6 62.8 8.7L61.9 8.8L61.2 9C44.3615 13.5408 28.1412 20.123 12.9 28.6C12.513 28.7916 12.1719 29.0645 11.9 29.4C11.8 29.6 11.7 29.9 11.4 30L11.1 30.2L10.8 30.4V30.7C10.7 30.6 10.8 30.6 10.9 30.7V30.7ZM73.4 23.8C73.8 23.6 74.1 23.5 74 22.8C73.8 21.8 73.4 20.3 72.8 19.3C72.3492 18.2845 71.7037 17.3672 70.9 16.6C70.7 16.3 70.4 16.3 69.9 16.5L55.9 21C52.3 22.2 46 24.4 43.5 25.5C43.1 25.7 43 25.8 43.3 26.1L43.9 26.5L44.9 27.2L45.8 28.1L46.3 28.6L46.7 28.9L47 29.2L47.3 29.5L47.6 29.8L48 30.2L48.5 30.5L49.2 31.3L50 32.1L51.1 33.1L51.6 33.7C52.1 34.2 51.9 34.1 52.6 33.8L61.7 29.4C64.2 27.9 70.7 25 73.4 23.8V23.8ZM83.9 31C83.7 29.7 83 28 82.7 27.6C82.4 27.2 82.2 27.1 81.7 27.2C72.049 29.2276 62.504 31.7307 53.1 34.7C52.8 34.8 52.5 34.9 52.8 35.1C53 35.3 53.1 35.6 53.3 35.6L53.8 36.1L54.1 36.6L54.5 37.1C54.6 37.2 54.8 37.7 55 37.8L55.2 38.3L55.4 38.8L55.7 39.3L56 40.1L67.3 39.9L71.1 38.6L77.3 36.7C78.5 36.4 81.3 35.7 82 35.4C83.1 35.1 83.6 35.1 83.7 34.8C84.0713 33.5679 84.1399 32.2643 83.9 31V31ZM34.4 9.7L34.5 10L34.7 10.2L34.9 10.6L35.1 10.8L35.3 11.2L35.5 11.6L35.9 12.2L36.4 12.6C36.6 12.7 36.6 12.9 36.7 13H37.3C37.5 12.9 37.9 13.1 38 13.1L38.1 13H38.4L38.5 13.2L39.2 13.3C39.4 13.3 39.8 13.2 40 13L40.3 12.5L40.8 12C40.9 11.8 41.1 12 41.3 11.8L41.6 11.3L42.2 10.8L43.2 9.5L43.6 8.9L44.1 7.7L44.3 6.9L44.4 6L44.6 5.1L44.4 4.1L44.3 3.7H44L43.9 3.2L43.5 2.6C43.5 2.3 43.3 2.3 43.3 2.1L43.1 1.7L43 1.5L41.9 0.4L41.6 0.2H41.1L40.9 0H40.4C40.3 0 40.2 0.3 40 0.2C39.6 0.1 39.4 0.3 39.4 0.3L39.1 0.4L38.9 0.6L38.7 0.7L38.4 0.8L37.7 1.3L37 1.8L36 2.8L35.4 3.7L35 4.6L34.7 5.6L34.4 6.7L34.2 7.2L34.1 8.2L34.2 9.4L34.4 9.7ZM26.2 51.3L26.3 50.7L26.6 50.2L27.1 49C27.3 48.7 27.4 48.2 27.4 48L27.7 47L28.2 45.6L28.7 44.6L29.2 43.2C29.3 42.7 30 41.2 30.1 41.1L30.5 39.9L30.8 39.3L30.9 38.7L31.2 38.2L31.6 37L32.1 35.9L32.4 35L32.9 34L33.3 32.7C33.4 32.2 33.9 31.3 34 31.1L34.2 30.3L34.5 29.8L34.6 29.2L34.7 28.9C34.7 28.8 34.8 28.7 34.5 28.7C34.2 28.7 33.7 29 33.1 29.2L25.4 32.9C21.7226 34.678 18.0558 36.478 14.4 38.3L4.8 43.4L2.7 44.7C2.3 44.9 2 45.5 2.1 45.9C2.1 46.2 2.2 47.1 2.5 48.2C2.8 49.3 3.3 50.2 3.4 50.6C3.6 51.1 3.9 51.2 4.7 50.9L8.3 49.5L11.8 48.2L16.4 46.6L11.5 49.2L2 54.2C0.300001 55 -0.0999985 55.2 -0.0999985 56.3C1.52737e-06 57.2 0.400002 58.5 0.800002 59.3C1.3 60.2 2 61.3 2.7 61.7C3.2 62 4 61.5 4.6 61.2L15.6 56L26.1 51.4C26.1 51.6 26.2 51.4 26.2 51.3V51.3Z" fill="#E30613"/>
</g>
<defs>
<clipPath id="clip0_25_2">
<rect width="220" height="65" fill="white"/>
</clipPath>
</defs>
</svg>
