<svg xmlns="http://www.w3.org/2000/svg" width="302" height="44" viewBox="0 0 302 44">
  <path id="LOGO" d="M281.65,103.912l-1.064-.176-1.06-.352-1.064-.529-.887-.7-.708-.705-.531-1.056-.352-.88V97.222l.352-1.054.534-.881.7-.88.887-.528,1.064-.528,1.06-.352,1.064-.178,1.239.178,1.06.352,1.064.528.887.529.708.88.531.881.352,1.054v6.687H281.65Zm5.839-19.355h-19.3v19.355h6.373l-.708-1.231-.708-1.407-.352-1.407-.179-1.585V97.4l.175-.88.534-1.583.883-1.407,1.064-1.407,1.416-1.057,1.416-.7.887-.352.883-.176.887-.176h.887l1.768.178,1.416.352,1.416.528,1.239.88V84.557h0Zm9.384,19.355,1.239-.176,1.06-.352.887-.529.887-.7.708-.705.531-1.056.356-.88.179-1.231-.18-1.056-.352-1.056-.531-.88-.708-.88-.887-.528-.887-.528L298.114,93l-1.239-.178L295.811,93l-1.239.352-.887.526-.883.529-.708.88-.534.88-.352,1.056-.179,1.056v5.63h5.844v0Zm-5.842-19.355H310.5v19.355h-6.55l.887-1.231.708-1.407.356-1.407.179-1.583-.179-.88v-.88l-.531-1.583-.887-1.407-1.064-1.407-1.416-1.056-1.591-.7-.887-.354-.887-.176-.883-.176h-.887l-1.595.176-1.595.352-1.416.528-1.239.88V84.557h0Zm-3.542,22.875v19.179h-19.3V107.433h19.3Zm23.014,0v19.179H291.031V107.433H310.5ZM21.958,94.411h2.478l2.655.176,1.947.352.885.352.887.352.706.529.71.526.531.705.531.7.354.88.354,1.056.177,1.231.177,1.231.179,2.992-.179,2.815-.177,1.228-.354,1.057-.354,1.057-.354,1.054-.531.7-.531.7-.71.7-.708.528-.708.531-1.062.35-.887.354-.885.174H21.956V94.411h0Zm4.25,32.2h2.3l2.478-.178,2.126-.528,1.947-.35L37,124.847l1.77-.878,1.77-1.057,1.416-1.231,1.418-1.407,1.062-1.585,1.062-1.935.885-1.935.708-2.111.354-2.461.356-2.639.177-2.818-.177-2.461-.356-2.463-.354-2.113-.708-1.935-.708-1.759L44.616,92.3l-1.062-1.407L42.138,89.48l-1.416-1.056-1.595-1.056-1.77-.88-1.947-.705-1.947-.528-2.3-.352-2.3-.178-2.3,0H8.5v41.879h17.7ZM50.635,95.994V126.61H62.5V95.994Zm0-12.492v8.622H62.5V83.5ZM99.494,126.61v-.528l-1.062-.881-.354-.881-.177-1.054V107.781l-.177-2.461-.179-2.465-.354-1.231-.354-.881-.531-1.056-.531-.88-.885-.88-1.062-.7L92.589,96.7l-1.416-.528-1.593-.352-1.947-.352-2.124-.178-2.478-.173-2.124.176H78.959l-1.768.352L75.6,95.82l-1.416.352-1.418.528-1.239.528-.885.7-.887.7-.885.7-.531.881-.531.878-.354,1.057-.356,1.057-.174,1.052V105.5H78.074l.354-.88.354-.7.354-.528.533-.352.708-.352.531-.176h2.478l.708.176.531.176.529.352.534.529.354.528.179.7-.179.529-.177.529-.354.35-.356.35-1.062.35-1.241.531-1.593.174-1.77.354-3.9.528-1.947.354-1.947.528-1.77.7-1.593.878-.708.707-.529.528-.531.881-.533.7L65.5,115l-.177.881-.179,1.231V119.4l.179,1.231.177.881.354.881.533.881.531.7.708.7.708.7.708.528.708.354,1.947.7,1.768.354,2.126.178h1.593l1.591-.178,1.418-.178,1.418-.528,1.239-.528,1.416-.7,1.241-.881,1.239-1.054.533,3.167H99.494v-.007Zm-18.588-5.981-.708,0-.887-.174-.529-.178-.531-.35-.533-.354-.354-.528v-.528l-.177-.354v-.7l.177-.7.354-.35.354-.528.354-.354.531-.178,1.239-.528,2.832-.7,1.595-.35,1.591-.7,0,1.582-.179,1.407-.354,1.235-.531,1.231-.708.878-.885.7-1.241.354-1.412.179Zm35.051-4.75,6.195,10.731h14.163l-12.391-18.651L134.9,95.994h-13.63l-7.612,9.326V84.733H101.973v41.879h11.683v-8.446Zm33.987-12.5,1.062.178,1.064.352.887.7.708.881.531,1.056.356,1.407.354,1.585v3.52l-.354,1.758-.354,1.407-.533,1.231-.708.7-1.064.7-.887.354-1.237.174-1.064-.174-.885-.354-.885-.7-.708-.7-.531-1.231-.533-1.407-.177-1.758-.177-1.939v-1.409l.177-1.231.356-1.407.531-1.054.708-1.057.354-.528.531-.35.531-.352.708-.178.531-.176Zm-16.818,8.272v1.935l.177,1.758.531,1.761.531,1.407.708,1.407.885,1.407.885,1.054,1.062,1.054,1.239,1.057,1.239.7,1.416.7,1.416.7,1.593.35,1.595.354,1.77.178,1.595,0,1.77,0,1.77-.178,1.593-.354,1.593-.35,1.416-.7,1.418-.7,1.416-.7,1.06-1.054,1.064-1.057,1.06-1.231.708-1.231.708-1.585.708-1.585.356-1.758.175-1.935.179-1.939-.179-1.758-.175-1.758-.356-1.585-.531-1.409-.708-1.407L164.1,101.8l-.887-1.057-1.06-1.231-1.064-.88-1.416-.88-1.416-.88-1.416-.528-1.593-.528-1.77-.352-1.772-.178-1.943-.169L148,95.29l-1.77.178-1.595.352-1.593.352-1.593.705-1.239.7-1.239.88-1.239,1.056-1.064,1.056-.885,1.231-.885,1.407-.531,1.407-.708,1.585-.354,1.758-.179,1.935v1.761h0Zm36.288,14.955H181.1V109.721l.175-1.235.356-1.054.352-1.057.708-.7.708-.528,1.06-.178,1.242-.176,1.06.176.887.354.887.528.352.7.531.881.179.881.179,1.054v17.244h11.683v-18.3l-.179-2.992-.175-1.409-.356-1.231-.352-1.057-.531-1.231-.534-.88-.708-.88-.708-.88-.883-.528-.887-.7-1.064-.528-1.06-.352-1.242-.176-1.239-.178-1.416-.176-1.591.176-1.595.178-1.239.528-1.416.7-1.064.7-1.06,1.056-1.06,1.057-1.064,1.407V95.992H169.415V126.61Zm35.939-30.616,0,30.616h11.683V95.994Zm0-12.492v8.62h11.683V83.5H205.355Zm26.372,24.457.179-1.231.179-1.056.531-.881.534-.7.883-.705.887-.352,1.06-.352,1.242-.176,1.06.176.887.35,1.06.529.708.7.708.7.356.881.352,1.054.179,1.057H231.727v0Zm22.483,6.159v-2.111l-.352-1.935-.356-1.758-.352-1.761-.708-1.759-.708-1.583L250.67,101.8l-1.06-1.409-1.064-1.056-1.416-1.056-1.416-.881-1.591-.88-1.595-.528-1.768-.529-1.947-.176-1.95-.176-1.768.176-1.772.178-1.591.352-1.416.528-1.595.7-1.416.7-1.239.88-1.242,1.056-1.06,1.056-.887,1.233-.883,1.406-.708,1.409-.356,1.583-.531,1.761-.179,1.758-.179,1.761.179,1.935.179,1.758.531,1.585.356,1.585.708,1.407.883,1.231,1.064,1.231,1.06,1.057,1.064,1.054,1.416.7,1.239.7,1.595.528,1.416.528,1.768.354,1.595.178h1.768l2.655-.178,2.48-.354,2.476-.7,1.242-.354,1.239-.528,1.06-.7.887-.7,1.06-.881.887-.881.708-1.054.708-1.057.531-1.231.356-1.407H242l-.356.7-.352.354-.534.528-.531.35-.7.354-.534.178-1.416.174-1.06-.174-1.064-.178-1.06-.528-.887-.7-.708-.881-.531-1.057-.356-1.054-.175-1.407h22.481Z" transform="translate(-8.503 -83.5)" fill="#05a1e4" fill-rule="evenodd"/>
</svg>
