<svg width="938" height="191" viewBox="0 0 938 191" fill="none" xmlns="http://www.w3.org/2000/svg">
<path d="M937.105 179.147L937.105 167.397L922.855 167.531C915.018 167.605 909.156 167.459 909.829 167.206C910.702 166.879 910.483 165.975 909.063 164.055C907.968 162.574 906.847 159.597 906.57 157.438C906.294 155.28 905.46 152.813 904.717 151.956C903.974 151.099 903.59 149.772 903.865 149.008C904.139 148.244 903.922 147.892 903.381 148.227C902.37 148.851 900.105 144.861 900.105 142.457C900.105 141.717 899.401 140.841 898.541 140.511C897.681 140.181 897.217 139.525 897.509 139.052C897.801 138.579 897.45 134.484 896.729 129.953C895.796 124.086 895.733 121.63 896.511 121.424C897.113 121.264 899.405 120.743 901.605 120.265C905.322 119.459 905.627 119.132 905.915 115.647C906.217 112.001 906.334 111.897 910.165 111.897C917.255 111.897 919.809 106.913 916.625 99.2913C915.11 95.6649 914.804 95.5946 909.396 97.6254C908.165 98.0879 907.981 97.5405 906.12 87.8719C904.859 81.3234 901.973 76.1919 898.854 74.9549C896.575 74.0511 891.932 69.5718 883.646 60.2819C879.175 55.2696 879.114 55.1088 880.588 52.2819C882.501 48.6139 882.509 44.8999 880.611 41.2609C879.763 39.6347 879.114 35.7477 879.111 32.2687C879.108 28.8984 878.419 24.5006 877.582 22.4959C876.449 19.7848 876.331 18.343 877.12 16.8687C877.907 15.397 877.771 13.6644 876.589 10.1415C874.2 3.01859 868.745 -0.689516 862.405 0.499984C859.757 0.996734 858.571 1.94808 857.315 4.58128C856.147 7.03128 855.999 8.2137 856.801 8.709C857.419 9.09078 858.077 10.7517 858.264 12.3999C858.484 14.3366 859.394 15.7429 860.835 16.3755C864.404 17.9413 864.341 19.8082 860.6 23.3357C858.11 25.6843 857.105 27.4987 857.105 29.6433C857.105 32.0144 856.496 32.9061 854.238 33.8412C850.143 35.5374 848.703 38.8093 849.478 44.6522C850.055 49.0054 849.855 49.7815 847.615 51.8866C845.815 53.5773 845.105 55.288 845.105 57.9308C845.105 65.743 843.916 70.8958 842.114 70.8958C839.648 70.8958 835.212 65.2003 835.832 62.8298C836.112 61.7602 835.902 60.325 835.365 59.6404C834.828 58.9558 834.351 56.0615 834.305 53.2084C834.199 46.6574 831.873 41.8954 828.779 41.8954C827.528 41.8954 825.899 41.3329 825.158 40.6454C824.401 39.9432 824.086 39.8882 824.439 40.5199C824.856 41.2653 823.318 41.8126 819.878 42.1431C817.024 42.4174 814.534 43.1072 814.344 43.6761C814.155 44.245 813.123 45.7209 812.052 46.9559C809.748 49.6128 809.631 51.6851 811.636 54.3365C812.444 55.4041 813.105 57.0955 813.105 58.0952C813.105 59.0949 814.297 61.2506 815.754 62.8857C817.761 65.1388 818.972 65.7158 820.754 65.2686C825.051 64.19 823.418 67.4684 815.853 75.1074C813.79 77.1908 811.653 78.8953 811.103 78.8953C809.992 78.8953 809.725 83.1824 810.771 84.2287C811.681 85.1381 811.206 97.5778 810.097 101.896C808.685 107.393 808.458 125.649 809.785 126.976C810.744 127.935 812.493 128.315 818.325 128.832C818.722 128.867 818.735 130.808 818.355 133.146C817.974 135.483 817.819 140.096 818.008 143.396C818.198 146.696 818.409 153.402 818.479 158.298C818.588 166.059 818.381 167.233 816.859 167.459C815.898 167.601 814.858 167.307 814.548 166.804C814.22 166.273 813.087 166.37 811.844 167.036C809.317 168.388 778.432 167.623 776.982 166.172C776.484 165.675 775.603 162.597 775.023 159.332C774.443 156.067 773.248 150.021 772.367 145.896C771.487 141.771 770.731 134.535 770.686 129.816C770.608 121.528 770.717 121.103 773.89 117.316C778.89 111.349 778.887 111.354 780.549 107.377C782.334 103.103 782.618 92.7246 781.031 89.7586C779.988 87.8094 780.124 86.7352 782.978 74.4166L783.668 71.4365L786.023 76.4166C790.832 86.5896 793.312 95.2596 793.464 102.426C793.593 108.503 793.967 109.835 796.224 112.27L798.835 115.085L801.066 111.952L803.297 108.819L801.266 102.608C800.149 99.1918 798.375 92.7969 797.325 88.3968C796.275 83.9968 794.143 76.7968 792.588 72.3968C784.382 49.1818 784.557 49.4598 776.605 46.9288C774.405 46.2286 771.367 44.5007 769.855 43.0892C767.503 40.8943 767.105 39.731 767.105 35.0542C767.105 22.5702 755.52 17.6802 747.792 26.9027C746.038 28.9958 746.044 29.1967 747.969 33.0885C749.064 35.3009 749.734 37.6979 749.459 38.4151C749.184 39.1324 750.182 41.5686 751.678 43.8288C753.712 46.902 754.865 47.7901 756.251 47.3502C758.167 46.7422 758.537 47.6054 757.51 50.2829C757.049 51.4835 755.956 51.7012 752.66 51.2493C744.625 50.1481 740.54 55.1003 743.7 62.1093C744.639 64.1924 745.775 65.8968 746.222 65.8968C747.239 65.8968 743.515 72.3112 741.552 73.94C739.217 75.8778 739.91 78.1362 744.137 82.37C748.557 86.796 748.887 88.6656 746.953 98.295C746.055 102.768 746.093 105.894 747.126 112.535C748.317 120.191 748.282 121.327 746.777 123.875C745.857 125.432 745.104 126.974 745.104 127.302C745.104 128.494 747.495 127.855 749.425 126.148C751.352 124.444 751.386 124.472 750.713 127.234C750.172 129.456 750.885 131.666 754.008 137.456C758.702 146.16 764.624 163.103 763.759 165.357C763.222 166.754 759.554 166.903 731.442 166.666L699.73 166.398L698.013 159.593C697.069 155.85 695.073 150.939 693.578 148.68C690.799 144.48 688.494 135.801 687.993 127.642C687.773 124.071 688.28 122.231 690.307 119.234C691.735 117.124 693.185 114.442 693.53 113.275C694.009 111.654 695.171 111.037 698.444 110.669C700.802 110.403 704.052 109.553 705.667 108.78L708.603 107.375L708.869 96.3858C709.086 87.3978 708.813 84.8228 707.369 82.2428C706.398 80.5077 703.452 74.9755 700.822 69.9488C698.191 64.9224 695.458 60.5869 694.748 60.3144C694.038 60.0419 693.457 58.374 693.458 56.608C693.463 43.143 690.262 33.065 685.139 30.416C682.066 28.8267 682.058 28.8 682.701 22.5208C683.475 14.967 682.41 12.4838 677.732 10.9398C674.812 9.97596 673.835 10.1236 670.634 12.012C666.992 14.1609 666.935 14.2881 667.612 18.7996C668.378 23.9114 669.679 26.8973 671.139 26.8973C673.305 26.8973 671.887 30.5135 669.097 32.1008C667.451 33.0378 666.104 34.5417 666.104 35.4431C666.104 36.3445 665.204 38.2261 664.104 39.6245C661.491 42.9459 661.592 45.3285 664.602 51.3975L667.081 56.3975L662.974 60.1384L658.867 63.8793L659.642 71.6384C660.637 81.6074 660.709 82.0734 661.558 84.0864C662.043 85.2343 661.603 86.1927 660.187 87.0769C659.041 87.7926 658.104 89.2121 658.104 90.2313C658.104 91.2505 657.204 92.3197 656.104 92.6074C654.087 93.1349 653.247 95.8972 655.104 95.8972C657.465 95.8972 655.668 98.9145 649.336 105.581C644.287 110.898 642.257 113.876 641.336 117.316C638.456 128.085 641.019 133.682 649.256 134.611C652.212 134.944 654.102 134.709 654.572 133.949C655.798 131.964 654.042 116.979 652.389 115.326C650.03 112.967 652.311 108.998 658.669 104.397C661.709 102.197 664.861 99.3845 665.673 98.147C667.848 94.8333 668.883 95.4009 668.41 99.647C668.18 101.71 668.491 107.163 669.101 111.767L670.21 120.137L665.648 129.128C661.542 137.222 661.18 138.483 662.022 141.758C662.54 143.769 662.655 150.094 662.281 155.897L661.603 166.397L582.353 166.623L503.103 166.848V160.489C503.103 155.186 503.405 154.051 504.919 153.656C506.354 153.28 506.648 152.431 506.318 149.605C505.911 146.121 506.012 146 510.252 144.909C523.911 141.394 525.305 140.23 522.622 134.576C520.927 131.005 520.717 130.897 515.458 130.897C508.798 130.897 508.385 130.126 510.051 120.802C511.212 114.305 511.443 113.896 513.945 113.89C515.407 113.887 517.893 113.212 519.468 112.39C521.044 111.569 523.399 110.897 524.702 110.897C528.238 110.897 533.062 106.037 534.133 101.397C535.609 94.9995 535.218 87.7446 533.151 83.1906C531.365 79.2564 520.816 67.8967 518.949 67.8967C518.484 67.8967 518.104 67.0232 518.104 65.9557C518.104 63.2584 516.046 62.2553 514.592 64.2439C513.015 66.401 505.561 66.5295 504.749 64.4135C504.436 63.5978 503.597 63.154 502.885 63.4273C501.431 63.985 497.027 57.687 492.285 48.2692C488.174 40.1061 482.371 36.4243 474.767 37.1543C470.523 37.562 469.216 38.1973 466.892 40.9817C463.927 44.533 463.928 45.3415 466.912 52.3957C469.092 57.5489 472.94 61.038 475.74 60.401C479.447 59.5575 480.543 62.1643 478.777 67.6272C474.774 80.0132 474.418 87.5873 477.221 100.713C478.008 104.398 477.847 105.407 476.124 107.598C473.928 110.39 473.388 116.49 475.282 117.121C477.566 117.883 474.944 119.896 471.668 119.896C467.624 119.896 466.043 121.629 465.547 126.606C465.339 128.691 464.653 135.571 464.022 141.895C463.227 149.864 462.41 153.764 461.364 154.597C458.7 156.718 460.647 158.895 465.207 158.895C469.637 158.895 476.781 160.622 478.854 162.193C479.542 162.714 480.104 163.985 480.104 165.018C480.104 166.803 478.836 166.901 454.354 167.014C425.145 167.148 425.881 167.191 424.804 165.3C424.364 164.527 422.698 163.895 421.101 163.895C416.712 163.895 413.188 161.997 406.822 156.204C403.643 153.311 398.918 149.731 396.322 148.25C388.632 143.861 388.099 143.159 388.146 137.49C388.193 131.81 390.266 121.793 391.392 121.802C391.792 121.805 393.688 122.102 395.605 122.461C400.737 123.424 403.502 122.373 408.3 117.635C413.053 112.943 419.617 100.678 418.682 98.2402C418.354 97.3854 418.625 94.8862 419.284 92.6865C420.345 89.146 420.279 88.5732 418.709 87.6945C417.466 86.999 417.113 85.9945 417.528 84.3386C417.957 82.6286 417.588 81.6898 416.19 80.942C415.128 80.3736 413.662 79.3135 412.931 78.5863C409.489 75.1592 400.605 69.8938 398.241 69.8801C394.747 69.8598 393.991 69.2326 390.8 63.7077C387.696 58.334 379.809 51.4108 377.709 52.2168C375.462 53.0791 373.207 49.7123 372.091 43.8275C370.867 37.3716 367.98 34.0743 362.819 33.2365C358.137 32.4766 354.6 34.6649 353.765 38.8385C353.372 40.8016 352.235 42.3338 350.627 43.0667C347.64 44.4275 347.217 46.3114 350.104 45.3951C351.251 45.0309 352.104 45.2154 352.104 45.8277C352.104 46.4148 351.316 46.8979 350.354 46.9013C349.391 46.9043 347.45 47.5098 346.039 48.2461C343.782 49.4239 342.858 49.313 338.35 47.3234C333.751 45.2941 333.159 44.6688 332.57 41.2286C330.503 29.1426 328.239 25.8946 321.88 25.8946C317.468 25.8946 314.44 27.5958 311.305 31.8363L309.107 34.8099L311.663 38.5771C313.069 40.649 314.004 43.1706 313.739 44.1806C313.469 45.2131 313.882 46.2559 314.682 46.5628C315.464 46.863 316.107 47.623 316.112 48.2516C316.123 49.9194 320.622 51.7441 322.345 50.7798C323.207 50.2973 324.461 50.4608 325.391 51.177C326.727 52.2064 326.857 53.7851 326.236 61.395C325.831 66.345 325.841 75.5041 326.256 81.7481L327.013 93.101L323.88 95.7481C322.157 97.204 319.478 98.9359 317.926 99.5969C316.374 100.258 315.104 101.495 315.104 102.347C315.104 103.228 314.243 103.895 313.104 103.895C310.193 103.895 310.655 105.208 314.104 106.735C315.754 107.465 317.104 108.7 317.104 109.479C317.104 110.258 317.707 110.895 318.443 110.895C320.853 110.895 322.097 115.309 320.841 119.401C319.629 123.35 317.153 124.895 312.039 124.895C308.337 124.895 308.353 123.557 312.122 117.995C313.762 115.574 318.355 109.851 318.355 109.289C318.355 109.086 318.436 107.662 317.68 108.509C316.351 110 313.169 114.473 312.125 116.05C310.487 118.523 308.349 121.237 307.375 122.079C304.745 124.355 299.404 125.895 294.143 125.895C288.198 125.895 285.104 128.484 285.104 133.459C285.104 138.06 287.06 138.754 301.031 139.113L311.995 139.395L312.3 151.395C312.77 169.917 314.992 167.895 294.17 167.895H276.374L270.239 160.479C266.865 156.4 264.105 152.831 264.105 152.548C264.105 152.266 265.113 151.89 266.345 151.715C271.309 151.007 271.53 144.748 267.664 114.395C266.823 107.795 265.791 99.2636 265.37 95.4356C264.675 89.1142 264.376 88.4238 262.105 87.8961C260.311 87.4793 259.515 86.545 259.287 84.5897C259.063 82.6719 258.026 81.4164 255.787 80.3526C254.036 79.5211 251.48 78.1845 250.105 77.3823C248.73 76.5801 246.393 75.9172 244.913 75.9091C242.645 75.8967 241.709 74.9314 238.961 69.7765C236.67 65.4781 234.125 62.4949 230.402 59.7446C225.889 56.4105 225.109 55.3541 225.135 52.6124C225.16 49.9418 225.339 49.6917 226.185 51.1438C226.745 52.1063 228.357 52.8938 229.766 52.8938C232.182 52.8938 232.288 52.6821 231.632 49.1438C231.25 47.0813 230.438 45.2148 229.828 44.9961C228.808 44.6305 227.864 43.6651 222.148 37.1438C219.409 34.0181 211.575 33.9839 207.489 37.0799C205.902 38.2823 204.482 39.3421 204.333 39.435C203.762 39.79 206.545 53.8939 207.186 53.8939C207.558 53.8939 208.41 55.2187 209.081 56.8379C210.011 59.0836 211.048 59.8544 213.452 60.0879C218.194 60.5483 217.994 63.7996 212.58 74.297C208.437 82.3309 208.103 83.4767 209.161 86.031C210.679 89.6964 208.847 94.4518 201.975 104.682C195.922 113.692 195.1 115.698 196.225 118.711C196.89 120.494 197.722 120.955 199.835 120.711C202.096 120.45 202.692 119.777 203.212 116.894C204.545 109.501 210.369 100.452 211.506 104.008C213.305 109.638 213.05 113.211 210.286 121.113C208.692 125.668 206.348 134.031 205.076 139.698C202.815 149.771 202.801 150.162 204.447 157.198C207.424 169.929 209.391 168.735 184.854 169.089C155.557 169.245 121.5 174.227 99.5 178C77.5 181.773 0.5 190.895 0.5 190.895L548.104 190.895H937.104L937.105 179.147ZM234.105 167.507C234.105 166.743 234.974 165.056 236.035 163.757L237.966 161.396L245.234 165.146L252.503 168.896H243.304C236.12 168.896 234.105 168.592 234.105 167.507ZM217.187 157.646C217.264 147.057 217.351 146.586 218.683 149.63C219.461 151.408 221.899 154.055 224.101 155.512C228.55 158.457 228.642 158.676 226.827 162.032C223.738 167.743 222.569 168.896 219.865 168.896H217.105L217.187 157.646ZM873.487 166.146C873.179 165.184 871.843 161.865 870.518 158.771C867.448 151.599 867.486 150.548 871.12 142.534C873.744 136.747 876.11 134.022 876.11 136.788C876.11 137.278 879.303 143.353 883.205 150.288C887.794 158.443 890.885 162.902 891.955 162.912C892.969 162.921 893.195 163.211 892.537 163.662C891.947 164.066 891.174 165.184 890.818 166.146C890.277 167.615 888.876 167.896 882.11 167.896C875.311 167.896 873.959 167.622 873.487 166.146ZM829.318 159.631C828.948 149.803 830.024 149.189 837.316 155.07C840.266 157.449 844.206 160.553 846.071 161.967C848.48 163.794 849.271 165.035 848.803 166.255C848.234 167.737 846.876 167.933 838.877 167.684L829.61 167.396L829.318 159.631ZM371.518 155.395C371.574 147.704 371.993 142.938 372.609 143.009C373.159 143.072 374.734 145.195 376.109 147.727C378.147 151.48 379.809 152.936 385.109 155.608C393.191 159.685 403.109 166.01 403.109 167.088C403.109 167.533 395.98 167.897 387.268 167.897H371.427L371.518 155.395ZM324.748 155.146C325.516 138.745 325.996 137.896 334.502 137.896H340.849L341.363 142.459C341.667 145.16 342.74 147.94 343.993 149.273C345.156 150.512 346.109 152.302 346.109 153.251C346.109 154.2 347.026 156.773 348.146 158.97C349.267 161.167 350.606 164.074 351.122 165.43L352.059 167.896H338.105H324.151L324.748 155.146ZM670.108 166.036C670.108 165.556 670.823 163.193 671.696 160.786C672.89 157.497 673.139 154.389 672.699 148.268C672.195 141.27 672.374 139.804 673.971 137.831L675.829 135.537L677.113 139.474C677.82 141.639 678.704 143.636 679.078 143.911C680.191 144.729 689.108 164.312 689.108 165.938C689.108 166.501 685.1 166.911 679.608 166.911C674.383 166.911 670.108 166.517 670.108 166.036ZM490.288 164.082C490.112 162.888 490.434 161.911 491.003 161.911C492.329 161.911 494.244 165.44 493.385 166.3C492.223 167.461 490.616 166.31 490.288 164.082ZM248.558 153.823C248.188 153.225 248.405 152.217 249.04 151.582C249.913 150.709 250.425 150.791 251.138 151.919C251.657 152.739 252.088 153.748 252.096 154.16C252.12 155.316 249.315 155.048 248.558 153.823ZM503.108 149.351C503.108 148.494 503.565 148.075 504.124 148.421C504.683 148.766 504.882 149.468 504.565 149.98C503.708 151.367 503.108 151.108 503.108 149.351ZM843.938 145.251C842.469 143.922 842.112 142.102 842.124 136.001C842.132 131.824 842.47 127.934 842.874 127.356C843.278 126.778 845.753 126.225 848.373 126.127C853.069 125.951 853.128 125.987 852.545 128.677C852.22 130.178 851.586 132.306 851.136 133.406C850.686 134.506 849.749 137.994 849.054 141.156C847.715 147.246 846.88 147.914 843.938 145.251ZM354.788 134.511C355.166 132.182 355.998 130.902 357.365 130.544C359.261 130.049 359.356 129.412 358.912 120.187L358.438 110.358L362.73 112.379C365.09 113.491 367.041 114.95 367.066 115.621C367.092 116.292 365.814 119.442 364.229 122.621C361.036 129.021 357.134 139.946 357.073 142.655C357.05 143.662 356.441 143.037 355.632 141.176C354.822 139.314 354.466 136.497 354.788 134.511ZM235.558 133.456C233.664 132.047 233.683 131.944 236.336 129.259C239.609 125.947 240.472 126.491 239.57 131.298C238.818 135.304 238.368 135.547 235.558 133.456ZM753.298 105.456C753.743 104.933 754.034 108.308 753.945 112.956L753.783 121.406L753.136 113.906C752.78 109.781 752.853 105.978 753.298 105.456ZM814.603 88.0768C815.453 87.2266 815.903 88.2395 816.528 92.4062L817.128 96.4062L815.613 92.4935C814.78 90.3415 814.326 88.354 814.603 88.0768ZM849.597 72.8568C849.27 71.8284 849.503 70.0528 850.114 68.9111C850.725 67.7694 851.382 65.2182 851.573 63.2418C851.897 59.907 853.339 57.9636 855.519 57.9267C856.017 57.9187 855.711 58.6989 854.84 59.6614C853.004 61.6908 853.114 61.0696 853.114 69.38C853.114 74.6442 852.842 75.7442 851.652 75.2876C850.848 74.9791 849.923 73.8852 849.597 72.8568ZM832.049 62.8762C830.985 62.3069 830.114 60.9096 830.114 59.7712C830.114 57.7547 830.178 57.7621 832.597 60.0564C836.231 63.503 835.947 64.9624 832.049 62.8762Z" fill="#0A0202"/>
</svg>
