<svg width="2036" height="191" viewBox="0 0 2036 191" fill="none" xmlns="http://www.w3.org/2000/svg">
<path d="M2035.1 179.147L2035.11 167.397L2020.86 167.531C2013.02 167.605 2007.16 167.459 2007.83 167.206C2008.7 166.879 2008.48 165.975 2007.06 164.055C2005.97 162.574 2004.85 159.597 2004.57 157.438C2004.29 155.28 2003.46 152.813 2002.72 151.956C2001.97 151.099 2001.59 149.772 2001.86 149.008C2002.14 148.244 2001.92 147.892 2001.38 148.227C2000.37 148.851 1998.1 144.861 1998.1 142.457C1998.1 141.717 1997.4 140.841 1996.54 140.511C1995.68 140.181 1995.22 139.525 1995.51 139.052C1995.8 138.579 1995.45 134.484 1994.73 129.953C1993.8 124.086 1993.73 121.63 1994.51 121.424C1995.11 121.264 1997.4 120.743 1999.6 120.265C2003.32 119.459 2003.63 119.132 2003.91 115.647C2004.22 112.001 2004.33 111.897 2008.16 111.897C2015.26 111.897 2017.81 106.913 2014.62 99.2913C2013.11 95.6649 2012.8 95.5946 2007.4 97.6254C2006.16 98.0879 2005.98 97.5405 2004.12 87.8719C2002.86 81.3234 1999.97 76.1919 1996.85 74.9549C1994.58 74.0511 1989.93 69.5718 1981.65 60.2819C1977.18 55.2696 1977.11 55.1088 1978.59 52.2819C1980.5 48.6139 1980.51 44.8999 1978.61 41.2609C1977.76 39.6347 1977.11 35.7477 1977.11 32.2687C1977.11 28.8984 1976.42 24.5006 1975.58 22.4959C1974.45 19.7848 1974.33 18.343 1975.12 16.8687C1975.91 15.397 1975.77 13.6644 1974.59 10.1415C1972.2 3.01859 1966.75 -0.689516 1960.41 0.499984C1957.76 0.996734 1956.57 1.94808 1955.32 4.58128C1954.15 7.03128 1954 8.2137 1954.8 8.709C1955.42 9.09078 1956.08 10.7517 1956.26 12.3999C1956.48 14.3366 1957.39 15.7429 1958.84 16.3755C1962.4 17.9413 1962.34 19.8082 1958.6 23.3357C1956.11 25.6843 1955.1 27.4987 1955.1 29.6433C1955.1 32.0144 1954.5 32.9061 1952.24 33.8412C1948.14 35.5374 1946.7 38.8093 1947.48 44.6522C1948.06 49.0054 1947.86 49.7815 1945.61 51.8866C1943.82 53.5773 1943.1 55.288 1943.1 57.9308C1943.1 65.743 1941.92 70.8958 1940.11 70.8958C1937.65 70.8958 1933.21 65.2003 1933.83 62.8298C1934.11 61.7602 1933.9 60.325 1933.36 59.6404C1932.83 58.9558 1932.35 56.0615 1932.3 53.2084C1932.2 46.6574 1929.87 41.8954 1926.78 41.8954C1925.53 41.8954 1923.9 41.3329 1923.16 40.6454C1922.4 39.9432 1922.09 39.8882 1922.44 40.5199C1922.86 41.2653 1921.32 41.8126 1917.88 42.1431C1915.02 42.4174 1912.53 43.1072 1912.34 43.6761C1912.15 44.245 1911.12 45.7209 1910.05 46.9559C1907.75 49.6128 1907.63 51.6851 1909.64 54.3365C1910.44 55.4041 1911.1 57.0955 1911.1 58.0952C1911.1 59.0949 1912.3 61.2506 1913.75 62.8857C1915.76 65.1388 1916.97 65.7158 1918.75 65.2686C1923.05 64.19 1921.42 67.4684 1913.85 75.1074C1911.79 77.1908 1909.65 78.8953 1909.1 78.8953C1907.99 78.8953 1907.73 83.1824 1908.77 84.2287C1909.68 85.1381 1909.21 97.5778 1908.1 101.896C1906.69 107.393 1906.46 125.649 1907.78 126.976C1908.74 127.935 1910.49 128.315 1916.33 128.832C1916.72 128.867 1916.73 130.808 1916.35 133.146C1915.97 135.483 1915.82 140.096 1916.01 143.396C1916.2 146.696 1916.41 153.402 1916.48 158.298C1916.59 166.059 1916.38 167.233 1914.86 167.459C1913.9 167.601 1912.86 167.307 1912.55 166.804C1912.22 166.273 1911.09 166.37 1909.84 167.036C1907.32 168.388 1876.43 167.623 1874.98 166.172C1874.48 165.675 1873.6 162.597 1873.02 159.332C1872.44 156.067 1871.25 150.021 1870.37 145.896C1869.49 141.771 1868.73 134.535 1868.69 129.816C1868.61 121.528 1868.72 121.103 1871.89 117.316C1876.89 111.349 1876.89 111.354 1878.55 107.377C1880.33 103.103 1880.62 92.7246 1879.03 89.7586C1877.99 87.8094 1878.12 86.7352 1880.98 74.4166L1881.67 71.4365L1884.02 76.4166C1888.83 86.5896 1891.31 95.2596 1891.46 102.426C1891.59 108.503 1891.97 109.835 1894.22 112.27L1896.83 115.085L1899.07 111.952L1901.3 108.819L1899.27 102.608C1898.15 99.1918 1896.38 92.7969 1895.33 88.3968C1894.27 83.9968 1892.14 76.7968 1890.59 72.3968C1882.38 49.1818 1882.56 49.4598 1874.6 46.9288C1872.4 46.2286 1869.37 44.5007 1867.85 43.0892C1865.5 40.8943 1865.1 39.731 1865.1 35.0542C1865.1 22.5702 1853.52 17.6802 1845.79 26.9027C1844.04 28.9958 1844.04 29.1967 1845.97 33.0885C1847.06 35.3009 1847.73 37.6979 1847.46 38.4151C1847.18 39.1324 1848.18 41.5686 1849.68 43.8288C1851.71 46.902 1852.87 47.7901 1854.25 47.3502C1856.17 46.7422 1856.54 47.6054 1855.51 50.2829C1855.05 51.4835 1853.96 51.7012 1850.66 51.2493C1842.63 50.1481 1838.54 55.1003 1841.7 62.1093C1842.64 64.1924 1843.77 65.8968 1844.22 65.8968C1845.24 65.8968 1841.51 72.3112 1839.55 73.94C1837.22 75.8778 1837.91 78.1362 1842.14 82.37C1846.56 86.796 1846.89 88.6656 1844.95 98.295C1844.05 102.768 1844.09 105.894 1845.13 112.535C1846.32 120.191 1846.28 121.327 1844.78 123.875C1843.86 125.432 1843.1 126.974 1843.1 127.302C1843.1 128.494 1845.49 127.855 1847.43 126.148C1849.35 124.444 1849.39 124.472 1848.71 127.234C1848.17 129.456 1848.88 131.666 1852.01 137.456C1856.7 146.16 1862.62 163.103 1861.76 165.357C1861.22 166.754 1857.55 166.903 1829.44 166.666L1797.73 166.398L1796.01 159.593C1795.07 155.85 1793.07 150.939 1791.58 148.68C1788.8 144.48 1786.49 135.801 1785.99 127.642C1785.77 124.071 1786.28 122.231 1788.31 119.234C1789.74 117.124 1791.19 114.442 1791.53 113.275C1792.01 111.654 1793.17 111.037 1796.44 110.669C1798.8 110.403 1802.05 109.553 1803.67 108.78L1806.6 107.375L1806.87 96.3858C1807.09 87.3978 1806.81 84.8228 1805.37 82.2428C1804.4 80.5077 1801.45 74.9755 1798.82 69.9488C1796.19 64.9224 1793.46 60.5869 1792.75 60.3144C1792.04 60.0419 1791.46 58.374 1791.46 56.608C1791.46 43.143 1788.26 33.065 1783.14 30.416C1780.07 28.8267 1780.06 28.8 1780.7 22.5208C1781.48 14.967 1780.41 12.4838 1775.73 10.9398C1772.81 9.97596 1771.83 10.1236 1768.63 12.012C1764.99 14.1609 1764.94 14.2881 1765.61 18.7996C1766.38 23.9114 1767.68 26.8973 1769.14 26.8973C1771.31 26.8973 1769.89 30.5135 1767.1 32.1008C1765.45 33.0378 1764.1 34.5417 1764.1 35.4431C1764.1 36.3445 1763.2 38.2261 1762.1 39.6245C1759.49 42.9459 1759.59 45.3285 1762.6 51.3975L1765.08 56.3975L1760.97 60.1384L1756.87 63.8793L1757.64 71.6384C1758.64 81.6074 1758.71 82.0734 1759.56 84.0864C1760.04 85.2343 1759.6 86.1927 1758.19 87.0769C1757.04 87.7926 1756.1 89.2121 1756.1 90.2313C1756.1 91.2505 1755.2 92.3197 1754.1 92.6074C1752.09 93.1349 1751.25 95.8972 1753.1 95.8972C1755.47 95.8972 1753.67 98.9145 1747.34 105.581C1742.29 110.898 1740.26 113.876 1739.34 117.316C1736.46 128.085 1739.02 133.682 1747.26 134.611C1750.21 134.944 1752.1 134.709 1752.57 133.949C1753.8 131.964 1752.04 116.979 1750.39 115.326C1748.03 112.967 1750.31 108.998 1756.67 104.397C1759.71 102.197 1762.86 99.3845 1763.67 98.147C1765.85 94.8333 1766.88 95.4009 1766.41 99.647C1766.18 101.71 1766.49 107.163 1767.1 111.767L1768.21 120.137L1763.65 129.128C1759.54 137.222 1759.18 138.483 1760.02 141.758C1760.54 143.769 1760.66 150.094 1760.28 155.897L1759.6 166.397L1680.35 166.623L1601.1 166.848V160.489C1601.1 155.186 1601.41 154.051 1602.92 153.656C1604.35 153.28 1604.65 152.431 1604.32 149.605C1603.91 146.121 1604.01 146 1608.25 144.909C1621.91 141.394 1623.3 140.23 1620.62 134.576C1618.93 131.005 1618.72 130.897 1613.46 130.897C1606.8 130.897 1606.39 130.126 1608.05 120.802C1609.21 114.305 1609.44 113.896 1611.94 113.89C1613.41 113.887 1615.89 113.212 1617.47 112.39C1619.04 111.569 1621.4 110.897 1622.7 110.897C1626.24 110.897 1631.06 106.037 1632.13 101.397C1633.61 94.9995 1633.22 87.7446 1631.15 83.1906C1629.36 79.2564 1618.82 67.8967 1616.95 67.8967C1616.48 67.8967 1616.1 67.0232 1616.1 65.9557C1616.1 63.2584 1614.05 62.2553 1612.59 64.2439C1611.01 66.401 1603.56 66.5295 1602.75 64.4135C1602.44 63.5978 1601.6 63.154 1600.88 63.4273C1599.43 63.985 1595.03 57.687 1590.28 48.2692C1586.17 40.1061 1580.37 36.4243 1572.77 37.1543C1568.52 37.562 1567.22 38.1973 1564.89 40.9817C1561.93 44.533 1561.93 45.3415 1564.91 52.3957C1567.09 57.5489 1570.94 61.038 1573.74 60.401C1577.45 59.5575 1578.54 62.1643 1576.78 67.6272C1572.77 80.0132 1572.42 87.5873 1575.22 100.713C1576.01 104.398 1575.85 105.407 1574.12 107.598C1571.93 110.39 1571.39 116.49 1573.28 117.121C1575.57 117.883 1572.94 119.896 1569.67 119.896C1565.62 119.896 1564.04 121.629 1563.55 126.606C1563.34 128.691 1562.65 135.571 1562.02 141.895C1561.23 149.864 1560.41 153.764 1559.36 154.597C1556.7 156.718 1558.65 158.895 1563.21 158.895C1567.64 158.895 1574.78 160.622 1576.85 162.193C1577.54 162.714 1578.1 163.985 1578.1 165.018C1578.1 166.803 1576.84 166.901 1552.35 167.014C1523.15 167.148 1523.88 167.191 1522.8 165.3C1522.36 164.527 1520.7 163.895 1519.1 163.895C1514.71 163.895 1511.19 161.997 1504.82 156.204C1501.64 153.311 1496.92 149.731 1494.32 148.25C1486.63 143.861 1486.1 143.159 1486.15 137.49C1486.19 131.81 1488.27 121.793 1489.39 121.802C1489.79 121.805 1491.69 122.102 1493.61 122.461C1498.74 123.424 1501.5 122.373 1506.3 117.635C1511.05 112.943 1517.62 100.678 1516.68 98.2402C1516.35 97.3854 1516.62 94.8862 1517.28 92.6865C1518.34 89.146 1518.28 88.5732 1516.71 87.6945C1515.47 86.999 1515.11 85.9945 1515.53 84.3386C1515.96 82.6286 1515.59 81.6898 1514.19 80.942C1513.13 80.3736 1511.66 79.3135 1510.93 78.5863C1507.49 75.1592 1498.61 69.8938 1496.24 69.8801C1492.75 69.8598 1491.99 69.2326 1488.8 63.7077C1485.7 58.334 1477.81 51.4108 1475.71 52.2168C1473.46 53.0791 1471.21 49.7123 1470.09 43.8275C1468.87 37.3716 1465.98 34.0743 1460.82 33.2365C1456.14 32.4766 1452.6 34.6649 1451.77 38.8385C1451.37 40.8016 1450.24 42.3338 1448.63 43.0667C1445.64 44.4275 1445.22 46.3114 1448.1 45.3951C1449.25 45.0309 1450.1 45.2154 1450.1 45.8277C1450.1 46.4148 1449.32 46.8979 1448.35 46.9013C1447.39 46.9043 1445.45 47.5098 1444.04 48.2461C1441.78 49.4239 1440.86 49.313 1436.35 47.3234C1431.75 45.2941 1431.16 44.6688 1430.57 41.2286C1428.5 29.1426 1426.24 25.8946 1419.88 25.8946C1415.47 25.8946 1412.44 27.5958 1409.31 31.8363L1407.11 34.8099L1409.66 38.5771C1411.07 40.649 1412 43.1706 1411.74 44.1806C1411.47 45.2131 1411.88 46.2559 1412.68 46.5628C1413.46 46.863 1414.11 47.623 1414.11 48.2516C1414.12 49.9194 1418.62 51.7441 1420.34 50.7798C1421.21 50.2973 1422.46 50.4608 1423.39 51.177C1424.73 52.2064 1424.86 53.7851 1424.24 61.395C1423.83 66.345 1423.84 75.5041 1424.26 81.7481L1425.01 93.101L1421.88 95.7481C1420.16 97.204 1417.48 98.9359 1415.93 99.5969C1414.37 100.258 1413.1 101.495 1413.1 102.347C1413.1 103.228 1412.24 103.895 1411.1 103.895C1408.19 103.895 1408.66 105.208 1412.1 106.735C1413.75 107.465 1415.1 108.7 1415.1 109.479C1415.1 110.258 1415.71 110.895 1416.44 110.895C1418.85 110.895 1420.1 115.309 1418.84 119.401C1417.63 123.35 1415.15 124.895 1410.04 124.895C1406.34 124.895 1406.35 123.557 1410.12 117.995C1411.76 115.574 1416.35 109.851 1416.35 109.289C1416.35 109.086 1416.44 107.662 1415.68 108.509C1414.35 110 1411.17 114.473 1410.12 116.05C1408.49 118.523 1406.35 121.237 1405.37 122.079C1402.75 124.355 1397.4 125.895 1392.14 125.895C1386.2 125.895 1383.1 128.484 1383.1 133.459C1383.1 138.06 1385.06 138.754 1399.03 139.113L1409.99 139.395L1410.3 151.395C1410.77 169.917 1412.99 167.895 1392.17 167.895H1374.37L1368.24 160.479C1364.87 156.4 1362.1 152.831 1362.1 152.548C1362.1 152.266 1363.11 151.89 1364.35 151.715C1369.31 151.007 1369.53 144.748 1365.66 114.395C1364.82 107.795 1363.79 99.2636 1363.37 95.4356C1362.67 89.1142 1362.38 88.4238 1360.1 87.8961C1358.31 87.4793 1357.51 86.545 1357.29 84.5897C1357.06 82.6719 1356.03 81.4164 1353.79 80.3526C1352.04 79.5211 1349.48 78.1845 1348.1 77.3823C1346.73 76.5801 1344.39 75.9172 1342.91 75.9091C1340.65 75.8967 1339.71 74.9314 1336.96 69.7765C1334.67 65.4781 1332.12 62.4949 1328.4 59.7446C1323.89 56.4105 1323.11 55.3541 1323.13 52.6124C1323.16 49.9418 1323.34 49.6917 1324.18 51.1438C1324.75 52.1063 1326.36 52.8938 1327.77 52.8938C1330.18 52.8938 1330.29 52.6821 1329.63 49.1438C1329.25 47.0813 1328.44 45.2148 1327.83 44.9961C1326.81 44.6305 1325.86 43.6651 1320.15 37.1438C1317.41 34.0181 1309.58 33.9839 1305.49 37.0799C1303.9 38.2823 1302.48 39.3421 1302.33 39.435C1301.76 39.79 1304.55 53.8939 1305.19 53.8939C1305.56 53.8939 1306.41 55.2187 1307.08 56.8379C1308.01 59.0836 1309.05 59.8544 1311.45 60.0879C1316.19 60.5483 1315.99 63.7996 1310.58 74.297C1306.44 82.3309 1306.1 83.4767 1307.16 86.031C1308.68 89.6964 1306.85 94.4518 1299.97 104.682C1293.92 113.692 1293.1 115.698 1294.22 118.711C1294.89 120.494 1295.72 120.955 1297.84 120.711C1300.1 120.45 1300.69 119.777 1301.21 116.894C1302.55 109.501 1308.37 100.452 1309.51 104.008C1311.3 109.638 1311.05 113.211 1308.29 121.113C1306.69 125.668 1304.35 134.031 1303.08 139.698C1300.82 149.771 1300.8 150.162 1302.45 157.198C1305.42 169.929 1307.39 168.735 1282.85 169.089C1253.56 169.245 0 170 0 170V190.895L1646.1 190.895H2035.1L2035.1 179.147ZM1332.1 167.507C1332.1 166.743 1332.97 165.056 1334.04 163.757L1335.97 161.396L1343.23 165.146L1350.5 168.896H1341.3C1334.12 168.896 1332.1 168.592 1332.1 167.507ZM1315.19 157.646C1315.26 147.057 1315.35 146.586 1316.68 149.63C1317.46 151.408 1319.9 154.055 1322.1 155.512C1326.55 158.457 1326.64 158.676 1324.83 162.032C1321.74 167.743 1320.57 168.896 1317.86 168.896H1315.11L1315.19 157.646ZM1971.49 166.146C1971.18 165.184 1969.84 161.865 1968.52 158.771C1965.45 151.599 1965.49 150.548 1969.12 142.534C1971.74 136.747 1974.11 134.022 1974.11 136.788C1974.11 137.278 1977.3 143.353 1981.21 150.288C1985.79 158.443 1988.88 162.902 1989.96 162.912C1990.97 162.921 1991.19 163.211 1990.54 163.662C1989.95 164.066 1989.17 165.184 1988.82 166.146C1988.28 167.615 1986.88 167.896 1980.11 167.896C1973.31 167.896 1971.96 167.622 1971.49 166.146ZM1927.32 159.631C1926.95 149.803 1928.02 149.189 1935.32 155.07C1938.27 157.449 1942.21 160.553 1944.07 161.967C1946.48 163.794 1947.27 165.035 1946.8 166.255C1946.23 167.737 1944.88 167.933 1936.88 167.684L1927.61 167.396L1927.32 159.631ZM1469.52 155.395C1469.57 147.704 1469.99 142.938 1470.61 143.009C1471.16 143.072 1472.73 145.195 1474.11 147.727C1476.15 151.48 1477.81 152.936 1483.11 155.608C1491.19 159.685 1501.11 166.01 1501.11 167.088C1501.11 167.533 1493.98 167.897 1485.27 167.897H1469.43L1469.52 155.395ZM1422.75 155.146C1423.52 138.745 1424 137.896 1432.5 137.896H1438.85L1439.36 142.459C1439.67 145.16 1440.74 147.94 1441.99 149.273C1443.16 150.512 1444.11 152.302 1444.11 153.251C1444.11 154.2 1445.03 156.773 1446.15 158.97C1447.27 161.167 1448.61 164.074 1449.12 165.43L1450.06 167.896H1436.11H1422.15L1422.75 155.146ZM1768.11 166.036C1768.11 165.556 1768.82 163.193 1769.7 160.786C1770.89 157.497 1771.14 154.389 1770.7 148.268C1770.19 141.27 1770.37 139.804 1771.97 137.831L1773.83 135.537L1775.11 139.474C1775.82 141.639 1776.7 143.636 1777.08 143.911C1778.19 144.729 1787.11 164.312 1787.11 165.938C1787.11 166.501 1783.1 166.911 1777.61 166.911C1772.38 166.911 1768.11 166.517 1768.11 166.036ZM1588.29 164.082C1588.11 162.888 1588.43 161.911 1589 161.911C1590.33 161.911 1592.24 165.44 1591.38 166.3C1590.22 167.461 1588.62 166.31 1588.29 164.082ZM1346.56 153.823C1346.19 153.225 1346.41 152.217 1347.04 151.582C1347.91 150.709 1348.43 150.791 1349.14 151.919C1349.66 152.739 1350.09 153.748 1350.1 154.16C1350.12 155.316 1347.31 155.048 1346.56 153.823ZM1601.11 149.351C1601.11 148.494 1601.57 148.075 1602.12 148.421C1602.68 148.766 1602.88 149.468 1602.57 149.98C1601.71 151.367 1601.11 151.108 1601.11 149.351ZM1941.94 145.251C1940.47 143.922 1940.11 142.102 1940.12 136.001C1940.13 131.824 1940.47 127.934 1940.87 127.356C1941.28 126.778 1943.75 126.225 1946.37 126.127C1951.07 125.951 1951.13 125.987 1950.55 128.677C1950.22 130.178 1949.59 132.306 1949.14 133.406C1948.69 134.506 1947.75 137.994 1947.05 141.156C1945.71 147.246 1944.88 147.914 1941.94 145.251ZM1452.79 134.511C1453.17 132.182 1454 130.902 1455.37 130.544C1457.26 130.049 1457.36 129.412 1456.91 120.187L1456.44 110.358L1460.73 112.379C1463.09 113.491 1465.04 114.95 1465.07 115.621C1465.09 116.292 1463.81 119.442 1462.23 122.621C1459.04 129.021 1455.13 139.946 1455.07 142.655C1455.05 143.662 1454.44 143.037 1453.63 141.176C1452.82 139.314 1452.47 136.497 1452.79 134.511ZM1333.56 133.456C1331.66 132.047 1331.68 131.944 1334.34 129.259C1337.61 125.947 1338.47 126.491 1337.57 131.298C1336.82 135.304 1336.37 135.547 1333.56 133.456ZM1851.3 105.456C1851.74 104.933 1852.03 108.308 1851.95 112.956L1851.78 121.406L1851.14 113.906C1850.78 109.781 1850.85 105.978 1851.3 105.456ZM1912.6 88.0768C1913.45 87.2266 1913.9 88.2395 1914.53 92.4062L1915.13 96.4062L1913.61 92.4935C1912.78 90.3415 1912.33 88.354 1912.6 88.0768ZM1947.6 72.8568C1947.27 71.8284 1947.5 70.0528 1948.11 68.9111C1948.73 67.7694 1949.38 65.2182 1949.57 63.2418C1949.9 59.907 1951.34 57.9636 1953.52 57.9267C1954.02 57.9187 1953.71 58.6989 1952.84 59.6614C1951 61.6908 1951.11 61.0696 1951.11 69.38C1951.11 74.6442 1950.84 75.7442 1949.65 75.2876C1948.85 74.9791 1947.92 73.8852 1947.6 72.8568ZM1930.05 62.8762C1928.98 62.3069 1928.11 60.9096 1928.11 59.7712C1928.11 57.7547 1928.18 57.7621 1930.6 60.0564C1934.23 63.503 1933.95 64.9624 1930.05 62.8762Z" fill="#374151"/>
</svg>
