<svg xmlns="http://www.w3.org/2000/svg" viewBox="0 0 411.24 105.28"><defs><style>.cls-1{fill:#1d1d1b;}.cls-2{fill:#a01813;}</style></defs><g id="Ebene_2" data-name="Ebene 2"><g id="füreinand_" data-name="füreinand’"><path class="cls-1" d="M16.28,96.38a.66.66,0,0,1,.2.49v5.91a1,1,0,0,1,0,.27.39.39,0,0,1-.14.22,7.72,7.72,0,0,1-5.73,2A8.67,8.67,0,0,1,6,104a9.52,9.52,0,0,1-3.33-3.43,9.18,9.18,0,0,1-1.23-4.64A9.27,9.27,0,0,1,2.7,91.3,9.41,9.41,0,0,1,6,87.89a8.67,8.67,0,0,1,4.57-1.27,8.75,8.75,0,0,1,5.76,2.07.57.57,0,0,1,.21.47.78.78,0,0,1-.19.5.61.61,0,0,1-.51.22.91.91,0,0,1-.58-.28A6.79,6.79,0,0,0,10.58,88a7.2,7.2,0,0,0-3.83,1.09A8.2,8.2,0,0,0,3.92,92a7.8,7.8,0,0,0-1,3.9,8,8,0,0,0,3.85,6.87,7.38,7.38,0,0,0,3.85,1.07,7.37,7.37,0,0,0,4.5-1.44v-5H11.17a.71.71,0,0,1-.5-.18.6.6,0,0,1-.2-.47.52.52,0,0,1,.2-.43.71.71,0,0,1,.5-.18h4.61A.72.72,0,0,1,16.28,96.38Z"/><path class="cls-1" d="M27.32,93a5.52,5.52,0,0,1,2.08,2.23,6.78,6.78,0,0,1,.75,3.23.62.62,0,0,1-.19.48.66.66,0,0,1-.49.18H19.72a5.05,5.05,0,0,0,.72,2.45,4.55,4.55,0,0,0,1.74,1.69,4.92,4.92,0,0,0,2.45.61,5.69,5.69,0,0,0,1.83-.32,3.74,3.74,0,0,0,1.45-.83.8.8,0,0,1,.49-.18.59.59,0,0,1,.42.14.58.58,0,0,1,.05.93,6.06,6.06,0,0,1-1.95,1.12,6.71,6.71,0,0,1-2.29.44,6.41,6.41,0,0,1-3.27-.83,5.86,5.86,0,0,1-2.25-2.3,6.86,6.86,0,0,1-.82-3.34,7.37,7.37,0,0,1,.76-3.37A5.77,5.77,0,0,1,21.17,93a6.24,6.24,0,0,1,6.15,0Zm-6.1,1.71a5.11,5.11,0,0,0-1.48,3.19H28.8a4.88,4.88,0,0,0-1.4-3.19,4.55,4.55,0,0,0-6.18,0Z"/><path class="cls-1" d="M48.52,92.84a4.75,4.75,0,0,1,1.71,1.94,6.49,6.49,0,0,1,.6,2.83v6.74a.69.69,0,0,1-.19.5.66.66,0,0,1-.51.19.68.68,0,0,1-.5-.19.7.7,0,0,1-.2-.5V97.61a4.39,4.39,0,0,0-1-2.93A3.05,3.05,0,0,0,46,93.54a3.46,3.46,0,0,0-2.63,1.07,3.78,3.78,0,0,0-.95,2.84v6.9a.74.74,0,0,1-.19.5.67.67,0,0,1-.51.19.68.68,0,0,1-.5-.19.66.66,0,0,1-.2-.5V97.61a4.4,4.4,0,0,0-1-2.93,3,3,0,0,0-2.44-1.14A3.51,3.51,0,0,0,34,97.22v7.13a.73.73,0,0,1-.18.5.69.69,0,0,1-.52.19.68.68,0,0,1-.5-.19.7.7,0,0,1-.2-.5V93a.68.68,0,0,1,.2-.51.72.72,0,0,1,.5-.19.74.74,0,0,1,.52.19A.71.71,0,0,1,34,93v.91a4.52,4.52,0,0,1,1.61-1.3,4.64,4.64,0,0,1,2-.47,4.43,4.43,0,0,1,2.42.67,4.81,4.81,0,0,1,1.7,1.82,4.64,4.64,0,0,1,1.75-1.82A4.74,4.74,0,0,1,46,92.14,4.5,4.5,0,0,1,48.52,92.84Z"/><path class="cls-1" d="M62.53,93a5.55,5.55,0,0,1,2.09,2.23,6.78,6.78,0,0,1,.74,3.23.65.65,0,0,1-.18.48.69.69,0,0,1-.49.18H54.93a5.27,5.27,0,0,0,.72,2.45,4.65,4.65,0,0,0,1.75,1.69,4.88,4.88,0,0,0,2.44.61,5.6,5.6,0,0,0,1.83-.32,3.79,3.79,0,0,0,1.46-.83.78.78,0,0,1,.49-.18.59.59,0,0,1,.42.14.61.61,0,0,1,.25.49.63.63,0,0,1-.21.44,5.9,5.9,0,0,1-1.94,1.12,6.77,6.77,0,0,1-2.3.44,6.46,6.46,0,0,1-3.27-.83,6,6,0,0,1-2.25-2.3,6.85,6.85,0,0,1-.81-3.34,7.24,7.24,0,0,1,.76-3.37A5.7,5.7,0,0,1,56.39,93a6.22,6.22,0,0,1,6.14,0Zm-6.1,1.71A5.16,5.16,0,0,0,55,97.89H64a4.88,4.88,0,0,0-1.39-3.19,4.33,4.33,0,0,0-3.13-1.21A4.25,4.25,0,0,0,56.43,94.7Z"/><path class="cls-1" d="M68.18,89.31a1.09,1.09,0,0,1-.3-.78,1,1,0,0,1,.32-.79,1.14,1.14,0,0,1,.77-.28,1.08,1.08,0,0,1,.76.28,1,1,0,0,1,.32.79,1.09,1.09,0,0,1-1.1,1.1A1,1,0,0,1,68.18,89.31Zm.29,15.54a.7.7,0,0,1-.2-.5V93a.68.68,0,0,1,.2-.51.72.72,0,0,1,.5-.19.74.74,0,0,1,.52.19.71.71,0,0,1,.18.51v11.35a.73.73,0,0,1-.18.5A.69.69,0,0,1,69,105,.68.68,0,0,1,68.47,104.85Z"/><path class="cls-1" d="M82.61,92.84a5.15,5.15,0,0,1,2.1,2,6.44,6.44,0,0,1,.75,3.2v6.27a.69.69,0,0,1-.19.5.7.7,0,0,1-.51.19.65.65,0,0,1-.69-.69V98.08a4.42,4.42,0,0,0-1.25-3.38,4.59,4.59,0,0,0-3.25-1.16,5.22,5.22,0,0,0-2.25.48,4,4,0,0,0-1.59,1.32,3.26,3.26,0,0,0-.58,1.88v7.13a.74.74,0,0,1-.19.5.69.69,0,0,1-.51.19.67.67,0,0,1-.7-.69V93a.64.64,0,0,1,.2-.51.7.7,0,0,1,.5-.19.73.73,0,0,1,.51.19.71.71,0,0,1,.19.51v1.21a5.42,5.42,0,0,1,1.93-1.52,5.61,5.61,0,0,1,2.49-.55A6.43,6.43,0,0,1,82.61,92.84Z"/><path class="cls-1" d="M90.54,104.71a5.14,5.14,0,0,1-2.12-1.46.6.6,0,0,1-.16-.42.62.62,0,0,1,.3-.53.6.6,0,0,1,.4-.12.67.67,0,0,1,.53.26,4.61,4.61,0,0,0,3.75,1.42A4.54,4.54,0,0,0,96,103.2a2,2,0,0,0,.87-1.67c0-1.23-1.19-2-3.57-2.35a7.15,7.15,0,0,1-3.41-1.24,2.7,2.7,0,0,1-1.15-2.19A3.13,3.13,0,0,1,90,93.11a5.21,5.21,0,0,1,3.24-.94,5.13,5.13,0,0,1,4.45,2.09.56.56,0,0,1,.14.4.61.61,0,0,1-.37.53,1,1,0,0,1-.35.09.7.7,0,0,1-.58-.3,4,4,0,0,0-3.33-1.51,3.67,3.67,0,0,0-2.26.62,1.83,1.83,0,0,0-.84,1.52,1.74,1.74,0,0,0,.8,1.49,6.79,6.79,0,0,0,2.69.84,6.74,6.74,0,0,1,3.56,1.32,3,3,0,0,1,1.08,2.34,2.82,2.82,0,0,1-.69,1.88,4.35,4.35,0,0,1-1.83,1.26,6.72,6.72,0,0,1-2.49.44A7.64,7.64,0,0,1,90.54,104.71Z"/><path class="cls-1" d="M109.87,93a6.26,6.26,0,0,1,2.34,2.34,6.61,6.61,0,0,1,.85,3.34v5.66a.73.73,0,0,1-.18.5.69.69,0,0,1-.52.19.68.68,0,0,1-.5-.19.7.7,0,0,1-.2-.5v-1.82a5.39,5.39,0,0,1-2.1,1.94,6.24,6.24,0,0,1-3,.71,6.6,6.6,0,0,1-3.33-.85,6.12,6.12,0,0,1-2.34-2.34,6.59,6.59,0,0,1-.85-3.3,6.72,6.72,0,0,1,.85-3.34A6.26,6.26,0,0,1,103.23,93a6.7,6.7,0,0,1,3.33-.84A6.62,6.62,0,0,1,109.87,93Zm-.7,10.19a4.81,4.81,0,0,0,1.83-1.86A5.67,5.67,0,0,0,111,96a4.84,4.84,0,0,0-1.83-1.87,5.26,5.26,0,0,0-5.21,0A4.93,4.93,0,0,0,102.12,96a5.52,5.52,0,0,0,0,5.31A4.91,4.91,0,0,0,104,103.2a5.33,5.33,0,0,0,5.21,0Z"/><path class="cls-1" d="M131.9,92.84a4.66,4.66,0,0,1,1.7,1.94,6.35,6.35,0,0,1,.61,2.83v6.74a.69.69,0,0,1-.19.5.66.66,0,0,1-.51.19.68.68,0,0,1-.5-.19.7.7,0,0,1-.2-.5V97.61a4.45,4.45,0,0,0-.95-2.93,3.07,3.07,0,0,0-2.45-1.14,3.44,3.44,0,0,0-2.63,1.07,3.78,3.78,0,0,0-1,2.84v6.9a.74.74,0,0,1-.19.5.69.69,0,0,1-.51.19.67.67,0,0,1-.7-.69V97.61a4.4,4.4,0,0,0-1-2.93A3,3,0,0,0,121,93.54a3.51,3.51,0,0,0-3.66,3.68v7.13a.69.69,0,0,1-.19.5.66.66,0,0,1-.51.19.68.68,0,0,1-.5-.19.7.7,0,0,1-.2-.5V93a.68.68,0,0,1,.2-.51.72.72,0,0,1,.5-.19.69.69,0,0,1,.51.19.67.67,0,0,1,.19.51v.91a4.52,4.52,0,0,1,1.61-1.3,4.6,4.6,0,0,1,2-.47,4.43,4.43,0,0,1,2.42.67,4.81,4.81,0,0,1,1.7,1.82,4.64,4.64,0,0,1,1.75-1.82,4.74,4.74,0,0,1,2.51-.67A4.5,4.5,0,0,1,131.9,92.84Z"/><path class="cls-1" d="M147.07,89.24a5.29,5.29,0,0,0-.77,3v.49h3.07a.62.62,0,0,1,.46.18.68.68,0,0,1,0,.9.62.62,0,0,1-.46.18H146.3v10.32a.7.7,0,0,1-.2.5.71.71,0,0,1-.52.19.7.7,0,0,1-.51-.19.69.69,0,0,1-.19-.5V94h-1.82a.63.63,0,1,1,0-1.26h1.82v-.49a6.18,6.18,0,0,1,1.16-4,4.19,4.19,0,0,1,3.49-1.47.7.7,0,0,1,.5.18.56.56,0,0,1,.2.45.57.57,0,0,1-.2.46.74.74,0,0,1-.5.17A2.76,2.76,0,0,0,147.07,89.24Z"/><path class="cls-1" d="M163,92.49a.67.67,0,0,1,.19.51v11.35a.69.69,0,0,1-.19.5.66.66,0,0,1-.51.19.68.68,0,0,1-.5-.19.7.7,0,0,1-.2-.5v-1.22a5.42,5.42,0,0,1-1.93,1.53,5.75,5.75,0,0,1-2.49.55,6.52,6.52,0,0,1-3-.7,5,5,0,0,1-2.1-2,6.45,6.45,0,0,1-.76-3.2V93a.7.7,0,1,1,1.4,0v6.27a4.38,4.38,0,0,0,1.25,3.37,4.55,4.55,0,0,0,3.25,1.17,5.14,5.14,0,0,0,2.24-.48,3.89,3.89,0,0,0,1.6-1.33,3.21,3.21,0,0,0,.58-1.87V93a.68.68,0,0,1,.2-.51.72.72,0,0,1,.5-.19A.69.69,0,0,1,163,92.49Zm-8.73-3.1a1.18,1.18,0,0,1-.35-.86,1.16,1.16,0,0,1,.35-.84,1.18,1.18,0,0,1,.86-.35,1.14,1.14,0,0,1,.85.35,1.15,1.15,0,0,1,.34.84,1.17,1.17,0,0,1-.34.86,1.1,1.1,0,0,1-.85.35A1.14,1.14,0,0,1,154.31,89.39Zm4.66,0a1.14,1.14,0,0,1-.35-.86,1.13,1.13,0,0,1,.35-.84,1.18,1.18,0,0,1,.86-.35,1.15,1.15,0,0,1,.85.35,1.2,1.2,0,0,1,.34.84,1.21,1.21,0,0,1-.34.86,1.12,1.12,0,0,1-.85.35A1.14,1.14,0,0,1,159,89.39Z"/><path class="cls-1" d="M174,92.93a.92.92,0,0,1,0,.19.64.64,0,0,1-.22.36.71.71,0,0,1-.41.11,4.61,4.61,0,0,1-.55,0,4.4,4.4,0,0,0-.57-.05,4.34,4.34,0,0,0-2.07.49,3.62,3.62,0,0,0-1.42,1.35,3.75,3.75,0,0,0-.51,1.94v7.08a.74.74,0,0,1-.19.5.69.69,0,0,1-.51.19.68.68,0,0,1-.5-.19.66.66,0,0,1-.2-.5V93a.64.64,0,0,1,.2-.51.72.72,0,0,1,.5-.19.73.73,0,0,1,.51.19.71.71,0,0,1,.19.51v1.45A4.85,4.85,0,0,1,170,92.77a4.52,4.52,0,0,1,2.28-.6C173.42,92.17,174,92.42,174,92.93Z"/><path class="cls-1" d="M200.94,87.05a.71.71,0,0,1,.18.5v16.8a.73.73,0,0,1-.18.5.66.66,0,0,1-.49.19.73.73,0,0,1-.52-.19.67.67,0,0,1-.21-.5V90.07l-7.08,14.42a.61.61,0,0,1-.6.32.71.71,0,0,1-.65-.44l-7.06-14.09v14.07a.7.7,0,0,1-.2.5.75.75,0,0,1-1,0,.7.7,0,0,1-.2-.5V87.55a.68.68,0,0,1,.7-.7.63.63,0,0,1,.63.35l7.83,15.47,7.73-15.47a.69.69,0,0,1,.63-.35A.66.66,0,0,1,200.94,87.05Z"/><path class="cls-1" d="M205.34,89.31a1.1,1.1,0,0,1-.31-.78,1,1,0,0,1,.33-.79,1.13,1.13,0,0,1,.77-.28,1.1,1.1,0,0,1,.76.28,1,1,0,0,1,.31.79,1.08,1.08,0,0,1-1.09,1.1A1,1,0,0,1,205.34,89.31Zm.29,15.54a.7.7,0,0,1-.2-.5V93a.68.68,0,0,1,.2-.51.72.72,0,0,1,.5-.19.69.69,0,0,1,.51.19.67.67,0,0,1,.19.51v11.35a.69.69,0,0,1-.19.5.66.66,0,0,1-.51.19A.68.68,0,0,1,205.63,104.85Z"/><path class="cls-1" d="M217.18,103.82a.72.72,0,0,1,.2.53.7.7,0,0,1-.2.5.71.71,0,0,1-.52.19h-.54a4.44,4.44,0,0,1-2.28-.58,4.11,4.11,0,0,1-1.56-1.59,4.61,4.61,0,0,1-.56-2.3V94H209.9a.6.6,0,0,1-.45-.18.65.65,0,0,1,0-.9.6.6,0,0,1,.45-.18h1.82V89a.68.68,0,0,1,.2-.52.69.69,0,0,1,.5-.2.69.69,0,0,1,.72.72v3.8h3.07a.62.62,0,0,1,.46.18.68.68,0,0,1,0,.9.62.62,0,0,1-.46.18h-3.07v6.54a3,3,0,0,0,.84,2.2,2.89,2.89,0,0,0,2.16.85h.52A.72.72,0,0,1,217.18,103.82Z"/><path class="cls-1" d="M235.64,92.84a4.73,4.73,0,0,1,1.7,1.94,6.49,6.49,0,0,1,.6,2.83v6.74a.73.73,0,0,1-.18.5.69.69,0,0,1-.51.19.7.7,0,0,1-.51-.19.69.69,0,0,1-.19-.5V97.61a4.4,4.4,0,0,0-1-2.93,3,3,0,0,0-2.44-1.14,3.47,3.47,0,0,0-2.64,1.07,3.86,3.86,0,0,0-.95,2.84v6.9a.69.69,0,0,1-.19.5.66.66,0,0,1-.51.19.68.68,0,0,1-.5-.19.7.7,0,0,1-.2-.5V97.61a4.45,4.45,0,0,0-.95-2.93,3.05,3.05,0,0,0-2.45-1.14,3.56,3.56,0,0,0-2.63,1,3.63,3.63,0,0,0-1,2.66v7.13a.73.73,0,0,1-.18.5.69.69,0,0,1-.51.19.67.67,0,0,1-.7-.69V93a.64.64,0,0,1,.2-.51.7.7,0,0,1,.5-.19.73.73,0,0,1,.51.19.71.71,0,0,1,.18.51v.91a4.52,4.52,0,0,1,1.61-1.3,4.64,4.64,0,0,1,2-.47,4.43,4.43,0,0,1,2.42.67,4.73,4.73,0,0,1,1.7,1.82,4.71,4.71,0,0,1,1.75-1.82,4.77,4.77,0,0,1,2.52-.67A4.5,4.5,0,0,1,235.64,92.84Z"/><path class="cls-1" d="M249.65,93a5.59,5.59,0,0,1,2.08,2.23,6.78,6.78,0,0,1,.75,3.23.66.66,0,0,1-.19.48.67.67,0,0,1-.49.18H242a5.27,5.27,0,0,0,.72,2.45,4.65,4.65,0,0,0,1.75,1.69,4.92,4.92,0,0,0,2.45.61,5.59,5.59,0,0,0,1.82-.32,3.79,3.79,0,0,0,1.46-.83.8.8,0,0,1,.49-.18.59.59,0,0,1,.42.14.58.58,0,0,1,0,.93,6.06,6.06,0,0,1-1.95,1.12,6.71,6.71,0,0,1-2.29.44,6.47,6.47,0,0,1-3.28-.83,5.9,5.9,0,0,1-2.24-2.3,6.75,6.75,0,0,1-.82-3.34,7.24,7.24,0,0,1,.76-3.37A5.7,5.7,0,0,1,243.5,93a6.24,6.24,0,0,1,6.15,0Zm-6.1,1.71a5.06,5.06,0,0,0-1.48,3.19h9.06a4.88,4.88,0,0,0-1.4-3.19,4.55,4.55,0,0,0-6.18,0Z"/><path class="cls-1" d="M263.78,92.84a5,5,0,0,1,2.1,2,6.45,6.45,0,0,1,.76,3.2v6.27a.7.7,0,0,1-.2.5.75.75,0,0,1-1,0,.7.7,0,0,1-.2-.5V98.08A4.42,4.42,0,0,0,264,94.7a4.58,4.58,0,0,0-3.24-1.16,5.15,5.15,0,0,0-2.25.48,4,4,0,0,0-1.6,1.32,3.26,3.26,0,0,0-.58,1.88v7.13a.69.69,0,0,1-.19.5.66.66,0,0,1-.51.19.68.68,0,0,1-.5-.19.7.7,0,0,1-.2-.5V93a.68.68,0,0,1,.2-.51.72.72,0,0,1,.5-.19.69.69,0,0,1,.51.19.67.67,0,0,1,.19.51v1.21a5.5,5.5,0,0,1,1.93-1.52,5.62,5.62,0,0,1,2.5-.55A6.39,6.39,0,0,1,263.78,92.84Z"/><path class="cls-1" d="M271.71,104.71a5,5,0,0,1-2.11-1.46.61.61,0,0,1-.17-.42.69.69,0,0,1,.7-.65.67.67,0,0,1,.54.26,4.58,4.58,0,0,0,3.75,1.42,4.51,4.51,0,0,0,2.71-.66,2,2,0,0,0,.87-1.67c0-1.23-1.18-2-3.56-2.35A7.11,7.11,0,0,1,271,97.94a2.71,2.71,0,0,1-1.16-2.19,3.13,3.13,0,0,1,1.25-2.64,5.22,5.22,0,0,1,3.25-.94,5.13,5.13,0,0,1,4.45,2.09.61.61,0,0,1,.14.4.63.63,0,0,1-.37.53,1.17,1.17,0,0,1-.35.09.72.72,0,0,1-.59-.3,4,4,0,0,0-3.33-1.51,3.69,3.69,0,0,0-2.26.62,1.82,1.82,0,0,0-.83,1.52,1.72,1.72,0,0,0,.8,1.49,6.68,6.68,0,0,0,2.69.84,6.7,6.7,0,0,1,3.55,1.32,3,3,0,0,1,1.08,2.34,2.86,2.86,0,0,1-.68,1.88,4.35,4.35,0,0,1-1.83,1.26,6.72,6.72,0,0,1-2.49.44A7.74,7.74,0,0,1,271.71,104.71Z"/><path class="cls-1" d="M284.31,104.33A6,6,0,0,1,282,102a6.68,6.68,0,0,1-.82-3.3,7,7,0,0,1,.77-3.32A5.74,5.74,0,0,1,284.13,93a5.68,5.68,0,0,1,3.07-.85,6.3,6.3,0,0,1,2.73.58,6.06,6.06,0,0,1,2.14,1.72.74.74,0,0,1,.16.4.57.57,0,0,1-.32.51.59.59,0,0,1-.38.14.63.63,0,0,1-.53-.28,4.74,4.74,0,0,0-3.8-1.77,4.34,4.34,0,0,0-2.4.67A4.5,4.5,0,0,0,283.18,96a6.1,6.1,0,0,0-.57,2.68,5.57,5.57,0,0,0,.63,2.65A4.68,4.68,0,0,0,285,103.2a4.78,4.78,0,0,0,2.56.68,4.67,4.67,0,0,0,3.29-1.14.67.67,0,0,1,.49-.21.53.53,0,0,1,.41.16.65.65,0,0,1,.24.51.52.52,0,0,1-.19.42,5.69,5.69,0,0,1-1.91,1.16,6.67,6.67,0,0,1-2.33.4A6.27,6.27,0,0,1,284.31,104.33Z"/><path class="cls-1" d="M304,92.84a5.07,5.07,0,0,1,2.09,2,6.34,6.34,0,0,1,.76,3.2v6.27a.7.7,0,0,1-.2.5.75.75,0,0,1-1,0,.7.7,0,0,1-.2-.5V98.08a4.42,4.42,0,0,0-1.24-3.38A4.62,4.62,0,0,0,301,93.54a5.15,5.15,0,0,0-2.25.48,4,4,0,0,0-1.6,1.32,3.34,3.34,0,0,0-.58,1.88v7.13a.69.69,0,0,1-.19.5.66.66,0,0,1-.51.19.68.68,0,0,1-.5-.19.7.7,0,0,1-.2-.5V87.55a.69.69,0,0,1,.2-.51.72.72,0,0,1,.5-.19.69.69,0,0,1,.51.19.69.69,0,0,1,.19.51v6.66a5.5,5.5,0,0,1,1.93-1.52,5.65,5.65,0,0,1,2.5-.55A6.46,6.46,0,0,1,304,92.84Z"/><path class="cls-1" d="M310.62,104a4.28,4.28,0,0,1-.85-2.77V87.55A.69.69,0,0,1,310,87a.72.72,0,0,1,.5-.19A.69.69,0,0,1,311,87a.69.69,0,0,1,.19.51V101.2a3.15,3.15,0,0,0,.45,1.76,1.37,1.37,0,0,0,1.18.69h.58a.54.54,0,0,1,.42.18.77.77,0,0,1,.16.52.73.73,0,0,1-.18.5.69.69,0,0,1-.52.19h-.46A2.64,2.64,0,0,1,310.62,104Z"/><path class="cls-1" d="M316.31,89.31a1.09,1.09,0,0,1-.3-.78,1,1,0,0,1,.33-.79,1.13,1.13,0,0,1,.77-.28,1.08,1.08,0,0,1,.75.28,1,1,0,0,1,.32.79,1.09,1.09,0,0,1-1.1,1.1A1,1,0,0,1,316.31,89.31Zm.3,15.54a.66.66,0,0,1-.2-.5V93a.64.64,0,0,1,.2-.51.7.7,0,0,1,.5-.19.73.73,0,0,1,.51.19.71.71,0,0,1,.19.51v11.35a.74.74,0,0,1-.19.5.69.69,0,0,1-.51.19A.66.66,0,0,1,316.61,104.85Z"/><path class="cls-1" d="M324.28,104.33A6,6,0,0,1,322,102a6.68,6.68,0,0,1-.83-3.3,7.1,7.1,0,0,1,.77-3.32A5.81,5.81,0,0,1,324.09,93a5.71,5.71,0,0,1,3.08-.85,6.26,6.26,0,0,1,2.72.58A6,6,0,0,1,332,94.49a.83.83,0,0,1,.16.4.56.56,0,0,1-.33.51.57.57,0,0,1-.37.14.64.64,0,0,1-.54-.28,4.74,4.74,0,0,0-3.79-1.77,4.33,4.33,0,0,0-4,2.52,6.1,6.1,0,0,0-.57,2.68,5.57,5.57,0,0,0,.63,2.65A4.68,4.68,0,0,0,325,103.2a4.73,4.73,0,0,0,2.56.68,4.64,4.64,0,0,0,3.28-1.14.67.67,0,0,1,.49-.21.57.57,0,0,1,.42.16.68.68,0,0,1,.23.51.52.52,0,0,1-.18.42,5.79,5.79,0,0,1-1.91,1.16,6.67,6.67,0,0,1-2.33.4A6.22,6.22,0,0,1,324.28,104.33Z"/><path class="cls-1" d="M344,92.84a5.15,5.15,0,0,1,2.1,2,6.44,6.44,0,0,1,.75,3.2v6.27a.69.69,0,0,1-.19.5.68.68,0,0,1-.5.19.67.67,0,0,1-.7-.69V98.08a4.42,4.42,0,0,0-1.25-3.38,4.59,4.59,0,0,0-3.25-1.16,5.22,5.22,0,0,0-2.25.48,4,4,0,0,0-1.59,1.32,3.26,3.26,0,0,0-.58,1.88v7.13a.74.74,0,0,1-.19.5.66.66,0,0,1-.51.19.68.68,0,0,1-.5-.19.7.7,0,0,1-.2-.5V87.55a.69.69,0,0,1,.2-.51.72.72,0,0,1,.5-.19.69.69,0,0,1,.51.19.73.73,0,0,1,.19.51v6.66a5.5,5.5,0,0,1,1.93-1.52,5.61,5.61,0,0,1,2.49-.55A6.4,6.4,0,0,1,344,92.84Z"/><path class="cls-1" d="M360,104.44a.67.67,0,0,1-.25.49.74.74,0,0,1-.42.18.59.59,0,0,1-.49-.28l-5.06-6.17-2.16,2v3.71a.69.69,0,0,1-.19.5.66.66,0,0,1-.51.19.68.68,0,0,1-.5-.19.7.7,0,0,1-.2-.5V87.55a.69.69,0,0,1,.2-.51.72.72,0,0,1,.5-.19.69.69,0,0,1,.51.19.69.69,0,0,1,.19.51V98.94l7.22-6.57a.72.72,0,0,1,.44-.18.6.6,0,0,1,.44.23.63.63,0,0,1,.21.44.59.59,0,0,1-.23.45l-4.94,4.49,5.08,6.22A.6.6,0,0,1,360,104.44Z"/><path class="cls-1" d="M370.85,93a5.52,5.52,0,0,1,2.08,2.23,6.78,6.78,0,0,1,.75,3.23.62.62,0,0,1-.19.48.67.67,0,0,1-.49.18h-9.76a5.17,5.17,0,0,0,.73,2.45,4.55,4.55,0,0,0,1.74,1.69,4.92,4.92,0,0,0,2.45.61,5.69,5.69,0,0,0,1.83-.32,3.82,3.82,0,0,0,1.45-.83.8.8,0,0,1,.49-.18.59.59,0,0,1,.42.14.58.58,0,0,1,0,.93,6.06,6.06,0,0,1-1.95,1.12,6.71,6.71,0,0,1-2.29.44,6.41,6.41,0,0,1-3.27-.83,5.86,5.86,0,0,1-2.25-2.3,6.75,6.75,0,0,1-.82-3.34,7.37,7.37,0,0,1,.76-3.37A5.7,5.7,0,0,1,364.7,93a6.24,6.24,0,0,1,6.15,0Zm-6.1,1.71a5.11,5.11,0,0,0-1.48,3.19h9.06a4.88,4.88,0,0,0-1.4-3.19,4.55,4.55,0,0,0-6.18,0Z"/><path class="cls-1" d="M376.5,89.31a1.06,1.06,0,0,1-.31-.78,1,1,0,0,1,.33-.79,1.13,1.13,0,0,1,.77-.28,1.1,1.1,0,0,1,.76.28,1,1,0,0,1,.31.79,1.08,1.08,0,0,1-1.09,1.1A1,1,0,0,1,376.5,89.31Zm.29,15.54a.7.7,0,0,1-.2-.5V93a.68.68,0,0,1,.2-.51.72.72,0,0,1,.5-.19.69.69,0,0,1,.51.19A.67.67,0,0,1,378,93v11.35a.69.69,0,0,1-.19.5.66.66,0,0,1-.51.19A.68.68,0,0,1,376.79,104.85Z"/><path class="cls-1" d="M388.34,103.82a.72.72,0,0,1,.2.53.7.7,0,0,1-.2.5.71.71,0,0,1-.52.19h-.54a4.42,4.42,0,0,1-2.28-.58,4.11,4.11,0,0,1-1.56-1.59,4.61,4.61,0,0,1-.56-2.3V94h-1.82a.6.6,0,0,1-.45-.18.65.65,0,0,1,0-.9.6.6,0,0,1,.45-.18h1.82V89a.68.68,0,0,1,.2-.52.67.67,0,0,1,.5-.2.69.69,0,0,1,.72.72v3.8h3.07a.62.62,0,0,1,.46.18.68.68,0,0,1,0,.9.62.62,0,0,1-.46.18H384.3v6.54a3,3,0,0,0,.84,2.2,2.89,2.89,0,0,0,2.16.85h.52A.72.72,0,0,1,388.34,103.82Z"/><path class="cls-2" d="M18.84,19.45A11.59,11.59,0,0,0,16,27.62v2.25h8.5a4,4,0,0,1,2.84,1,3.47,3.47,0,0,1,1.08,2.67A3.27,3.27,0,0,1,27.35,36a4.07,4.07,0,0,1-2.84,1H16V69.56a4.15,4.15,0,0,1-1.17,3.08,4.39,4.39,0,0,1-3.25,1.17,4,4,0,0,1-2.88-1.17A4.1,4.1,0,0,1,7.5,69.56V37H3.92a4.07,4.07,0,0,1-2.84-1A3.27,3.27,0,0,1,0,33.54a3.47,3.47,0,0,1,1.08-2.67,4,4,0,0,1,2.84-1H7.5V28.45A21.78,21.78,0,0,1,9.88,18.07a17,17,0,0,1,6.67-6.92,19.35,19.35,0,0,1,9.8-2.46,4.4,4.4,0,0,1,3,1.08,3.53,3.53,0,0,1,1.21,2.75,3.54,3.54,0,0,1-1.21,2.76,4.4,4.4,0,0,1-3,1.08A9.7,9.7,0,0,0,18.84,19.45Z"/><path class="cls-2" d="M73.79,29.28A4.18,4.18,0,0,1,75,32.37V69.56a4.2,4.2,0,0,1-1.17,3,4.28,4.28,0,0,1-7.34-3v-.92a18.61,18.61,0,0,1-6.34,4.13,22.19,22.19,0,0,1-18.17-1,17.5,17.5,0,0,1-7.17-7.29,24,24,0,0,1-2.59-11.55V32.37a4.26,4.26,0,1,1,8.51,0V52.88q0,6.75,3.62,10.21a13.36,13.36,0,0,0,9.63,3.46,14.26,14.26,0,0,0,6.38-1.41,11.43,11.43,0,0,0,4.51-3.84,9.52,9.52,0,0,0,1.62-5.42V32.37a4.09,4.09,0,0,1,1.21-3.09,4.63,4.63,0,0,1,6.13,0ZM41.15,19.74a4.94,4.94,0,0,1,0-7,4.88,4.88,0,0,1,3.58-1.5,4.79,4.79,0,0,1,3.5,1.5,4.87,4.87,0,0,1,0,7,4.86,4.86,0,0,1-3.5,1.46A4.92,4.92,0,0,1,41.15,19.74Zm18.55,0a5,5,0,0,1,0-7,4.75,4.75,0,0,1,3.54-1.5,4.82,4.82,0,0,1,3.51,1.5,4.89,4.89,0,0,1,0,7,4.9,4.9,0,0,1-3.51,1.46A4.79,4.79,0,0,1,59.7,19.74Z"/><path class="cls-2" d="M115.06,29c1.67.89,2.5,2,2.5,3.34a3.11,3.11,0,0,1-.08.83,3.23,3.23,0,0,1-3.34,2.67,6.35,6.35,0,0,1-1.25-.17,33.78,33.78,0,0,0-5.42-.58q-6,0-9.67,2.75a8.8,8.8,0,0,0-3.67,7.42V69.64a4.28,4.28,0,0,1-1,3.08A4.14,4.14,0,0,1,90,73.81a4.28,4.28,0,0,1-3.08-1,4.18,4.18,0,0,1-1.09-3.13V32.37a4.22,4.22,0,0,1,1.09-3.09A4.17,4.17,0,0,1,90,28.2q4.17,0,4.17,4.17V34a17.7,17.7,0,0,1,6.17-4.58,18.77,18.77,0,0,1,7.84-1.67A15,15,0,0,1,115.06,29Z"/><path class="cls-2" d="M158.67,52.92a3.8,3.8,0,0,1-2.75,1H124.23a14.7,14.7,0,0,0,5.3,9.43A16.34,16.34,0,0,0,140.24,67a16,16,0,0,0,5.21-.92,15.36,15.36,0,0,0,4.46-2.25,4.34,4.34,0,0,1,2.75-.91,3.59,3.59,0,0,1,2.51.83,3.64,3.64,0,0,1,1.5,2.83,3,3,0,0,1-1.34,2.51,23,23,0,0,1-7,3.66A25.46,25.46,0,0,1,128,71.18,21.48,21.48,0,0,1,119.52,63a23.33,23.33,0,0,1-3-11.92,24.75,24.75,0,0,1,2.87-12,20.78,20.78,0,0,1,8-8.25,22.76,22.76,0,0,1,11.63-3,21,21,0,0,1,11.09,2.83,18.73,18.73,0,0,1,7.17,7.92,26.09,26.09,0,0,1,2.5,11.68A3.48,3.48,0,0,1,158.67,52.92ZM129.11,38.37a15,15,0,0,0-4.8,8.92h27.77a14.8,14.8,0,0,0-4.17-8.92A12.24,12.24,0,0,0,139,35,14.43,14.43,0,0,0,129.11,38.37Z"/><path class="cls-2" d="M167.63,19.15a5.42,5.42,0,0,1,0-7.75A5.51,5.51,0,0,1,177,15.28a5.25,5.25,0,0,1-1.63,3.87,5.42,5.42,0,0,1-7.75,0Zm.83,53.45a4.15,4.15,0,0,1-1.21-3V32.45a4.1,4.1,0,0,1,1.21-3.08,4.6,4.6,0,0,1,6.13,0,4.15,4.15,0,0,1,1.17,3.08V69.56a4.2,4.2,0,0,1-1.17,3,4.49,4.49,0,0,1-6.13,0Z"/><path class="cls-2" d="M220.45,30.28a17.65,17.65,0,0,1,7.17,7.3,24.09,24.09,0,0,1,2.58,11.55V69.64a4.25,4.25,0,1,1-8.5,0V49.13q0-6.75-3.63-10.22a13.41,13.41,0,0,0-9.63-3.46,14.33,14.33,0,0,0-6.38,1.42,11.4,11.4,0,0,0-4.5,3.84,9.52,9.52,0,0,0-1.62,5.42V69.64a4.19,4.19,0,0,1-1.17,3,4.28,4.28,0,0,1-7.34-3V32.45a4.07,4.07,0,0,1,1.21-3.08,4.24,4.24,0,0,1,7.3,3.08v.92a18.57,18.57,0,0,1,6.33-4.13,21.09,21.09,0,0,1,7.84-1.46A21.32,21.32,0,0,1,220.45,30.28Z"/><path class="cls-2" d="M272.43,30.91a22.41,22.41,0,0,1,8.26,8.34,23.23,23.23,0,0,1,3,11.8V69.64a4.25,4.25,0,1,1-8.5,0V66.55a21,21,0,0,1-27,4.59,21.13,21.13,0,0,1-7.67-8.3,24.9,24.9,0,0,1-2.79-11.79,23.51,23.51,0,0,1,3-11.8,21.94,21.94,0,0,1,8.3-8.34,23.06,23.06,0,0,1,11.71-3A22.61,22.61,0,0,1,272.43,30.91ZM268.35,64.6A14.51,14.51,0,0,0,273.64,59a16.44,16.44,0,0,0,1.92-8,16.69,16.69,0,0,0-1.92-8,14.7,14.7,0,0,0-20.38-5.63A14.76,14.76,0,0,0,247.92,43a16.38,16.38,0,0,0-2,8,16.14,16.14,0,0,0,2,8,14.86,14.86,0,0,0,5.34,5.59,15,15,0,0,0,15.09,0Z"/><path class="cls-2" d="M325.25,30.28a17.59,17.59,0,0,1,7.17,7.3A24,24,0,0,1,335,49.13V69.64a4.26,4.26,0,1,1-8.51,0V49.13q0-6.75-3.62-10.22a13.41,13.41,0,0,0-9.63-3.46,14.3,14.3,0,0,0-6.38,1.42,11.33,11.33,0,0,0-4.5,3.84,9.45,9.45,0,0,0-1.63,5.42V69.64a4.19,4.19,0,0,1-1.17,3,4.07,4.07,0,0,1-3.08,1.21,4.12,4.12,0,0,1-4.25-4.25V32.45a4.1,4.1,0,0,1,1.2-3.08,4.21,4.21,0,0,1,3.05-1.17,4,4,0,0,1,4.25,4.25v.92a18.61,18.61,0,0,1,6.34-4.13,21,21,0,0,1,7.83-1.46A21.29,21.29,0,0,1,325.25,30.28Z"/><path class="cls-2" d="M387.37,9.86a4.15,4.15,0,0,1,1.17,3.08V51a23.24,23.24,0,0,1-3.05,11.8,22.46,22.46,0,0,1-19.88,11.38,23.09,23.09,0,0,1-11.72-3,21.91,21.91,0,0,1-8.29-8.34,23.51,23.51,0,0,1-3-11.8,24.94,24.94,0,0,1,2.79-11.8,21.1,21.1,0,0,1,7.67-8.29,20.8,20.8,0,0,1,27,4.58V12.94a4.07,4.07,0,0,1,1.21-3.08,4.6,4.6,0,0,1,6.13,0ZM373.15,64.6a14.44,14.44,0,0,0,5.3-5.63,16.69,16.69,0,0,0,1.92-8,16.44,16.44,0,0,0-1.92-8,14.54,14.54,0,0,0-5.3-5.59,15,15,0,0,0-15.09,0A14.76,14.76,0,0,0,352.73,43a16.14,16.14,0,0,0-2,8,16.38,16.38,0,0,0,2,8,14.66,14.66,0,0,0,5.33,5.63,15,15,0,0,0,15.09,0Z"/><path class="cls-2" d="M409,2.55a12.29,12.29,0,0,1,2.24,7.05,26,26,0,0,1-1.6,9.09,40.11,40.11,0,0,1-4.37,9.38q-2.6,4-4.89,4.1A2.88,2.88,0,0,1,398,31.3a3.47,3.47,0,0,1-1-2.36,3.8,3.8,0,0,1,.25-1.54q2.34-6.12,2.15-10.15a21.62,21.62,0,0,0-1.12-5.3,28,28,0,0,1-1-5.09,6.22,6.22,0,0,1,1.74-4.73A6.5,6.5,0,0,1,403.67,0,6,6,0,0,1,409,2.55Z"/></g></g></svg>