<svg xmlns="http://www.w3.org/2000/svg" width="220.559" height="75.342" viewBox="0 0 220.559 75.342"><g transform="translate(-54.823 -54.891)"><path d="M71.279,85.273a1.466,1.466,0,0,0-.17.43,6.3,6.3,0,0,0-.158,1.5,6.675,6.675,0,0,0,.143,1.478,1.815,1.815,0,0,0,.391.84,14.735,14.735,0,0,0,5.279,2.629A22.881,22.881,0,0,0,83.5,93.1c7.1,0,14.55-2.776,20.547-6.173a48.317,48.317,0,0,0,10.1-7.972,34.046,34.046,0,0,0,5.913-7.534,9,9,0,0,0,.907-3.516,3.008,3.008,0,0,0-.052-.589,1.735,1.735,0,0,0-.33-.7.376.376,0,0,0-.116-.094c-.12-.041-.217.07-.275.125-.1.1-.2.22-.267.3a85.379,85.379,0,0,1-15.774,12.9,47.334,47.334,0,0,1-14.17,5.862,38.839,38.839,0,0,1-9.546,1.1A31.257,31.257,0,0,1,71.381,85.2a.056.056,0,0,0-.051.014.376.376,0,0,0-.051.058" transform="translate(-11.271 -8.122)" fill="#ef932e"/><path d="M235.115,66.489h0Z" transform="translate(-125.99 -8.104)" fill="#d58727"/><path d="M94.142,146.75c-6.1,0-12.377,2.573-17.5,6.267a60.354,60.354,0,0,0-19.671,24.634,39.2,39.2,0,0,0-1.952,5.883A10.865,10.865,0,0,0,55,187.523c.107.566.326,1.888.788,1.888.211,0,.361-.32.483-.618a67.571,67.571,0,0,1,10.665-17.743c7.432-9.126,17.232-16.691,27.486-16.691a14.844,14.844,0,0,1,6.726,1.578,24.338,24.338,0,0,1,6.05,4.441.014.014,0,0,0,.011,0c.458-.042.58-1.633.53-3.326a10.919,10.919,0,0,0-.66-3.764,11.821,11.821,0,0,0-2.252-2.735,15.145,15.145,0,0,0-10.684-3.807" transform="translate(0 -64.191)" fill="#ef932e"/><path d="M146.212,68.48c-3.474,3.474-8.68,3.9-11.628.952s-2.522-8.154.952-11.628,8.68-3.9,11.628-.952,2.522,8.155-.952,11.628" transform="translate(-54.368)" fill="#ef932e"/><path d="M267.937,128.964v15.89q0,3.565,1.574,5.309a6.419,6.419,0,0,0,8.8,0q1.573-1.744,1.574-5.309v-15.89h4.323v15.89q0,5.5-2.844,8.324A10.188,10.188,0,0,1,273.854,156a10.009,10.009,0,0,1-7.433-2.825q-2.807-2.825-2.806-8.324v-15.89Z" transform="translate(-145.905 -51.762)"/><path d="M354.746,153.568v3.754h-2.655a7.158,7.158,0,0,1-5.063-1.612q-1.726-1.612-1.726-5.366V140.105h-3v-3.678h3v-5.2h4.361v5.2h5.044v3.678h-5.044V150.42a3.531,3.531,0,0,0,.664,2.465,3.192,3.192,0,0,0,2.332.683h2.086Z" transform="translate(-200.896 -53.347)"/><path d="M413.877,159.166H397.8a6.569,6.569,0,0,0,1.782,4.778,5.832,5.832,0,0,0,4.134,1.555,6.013,6.013,0,0,0,3.66-1.1,4.541,4.541,0,0,0,1.839-2.92h4.627a8.879,8.879,0,0,1-5.2,6.58,11.3,11.3,0,0,1-4.74.967,10.906,10.906,0,0,1-5.366-1.289,9.165,9.165,0,0,1-3.66-3.716,12.933,12.933,0,0,1,0-11.415,9.172,9.172,0,0,1,3.66-3.717,11.889,11.889,0,0,1,10.732-.019,8.847,8.847,0,0,1,3.527,3.489,10.779,10.779,0,0,1,1.081,6.807m-4.911-5.4a4.882,4.882,0,0,0-2.124-2.048,6.557,6.557,0,0,0-2.939-.664,6.072,6.072,0,0,0-4.247,1.555,6.354,6.354,0,0,0-1.858,4.589h11.87a6.431,6.431,0,0,0-.7-3.432" transform="translate(-236.705 -64.785)"/><path d="M512.663,144.247a6.486,6.486,0,0,1,1.5,4.248,6.662,6.662,0,0,1-2.238,5.29q-2.238,1.954-6.485,1.953H494.782V128.964h10.467a9.334,9.334,0,0,1,6.163,1.8,6.9,6.9,0,0,1,.815,9.064,6.432,6.432,0,0,1-3.489,2.1,6.631,6.631,0,0,1,3.925,2.313m-13.557-3.755h5.347a5.066,5.066,0,0,0,3.47-1.062,3.751,3.751,0,0,0,1.195-2.958,3.708,3.708,0,0,0-1.195-2.92,5.321,5.321,0,0,0-3.622-1.062h-5.2v8Zm9.272,10.562a4.31,4.31,0,0,0-.019-6.276,5.816,5.816,0,0,0-3.83-1.138h-5.423v8.533h5.461a5.807,5.807,0,0,0,3.812-1.119" transform="translate(-307.447 -51.762)"/><path d="M585.149,148.889a9.262,9.262,0,0,1,3.792,3.717,12.613,12.613,0,0,1,0,11.415,9.255,9.255,0,0,1-3.792,3.716,12.172,12.172,0,0,1-10.9,0A9.372,9.372,0,0,1,570.453,164a12.419,12.419,0,0,1,0-11.4,9.411,9.411,0,0,1,3.792-3.717,12.171,12.171,0,0,1,10.9,0m-8.533,3.224a5.587,5.587,0,0,0-2.257,2.332,9.152,9.152,0,0,0,0,7.717,5.61,5.61,0,0,0,2.257,2.314,6.6,6.6,0,0,0,6.143,0,5.614,5.614,0,0,0,2.257-2.314,9.155,9.155,0,0,0,0-7.717,5.6,5.6,0,0,0-2.257-2.332,6.6,6.6,0,0,0-6.143,0" transform="translate(-359.359 -64.785)"/><path d="M666.971,149.743a9.244,9.244,0,0,1,3.3,5.821h-4.588a4.91,4.91,0,0,0-1.839-3.091,5.841,5.841,0,0,0-3.659-1.119,5.505,5.505,0,0,0-4.172,1.763,8.892,8.892,0,0,0,0,10.372,5.477,5.477,0,0,0,4.172,1.782,5.774,5.774,0,0,0,3.659-1.138,4.983,4.983,0,0,0,1.839-3.11h4.588a9.323,9.323,0,0,1-3.3,5.841,10.287,10.287,0,0,1-6.712,2.161,10.9,10.9,0,0,1-5.366-1.289,9.166,9.166,0,0,1-3.659-3.716,12.938,12.938,0,0,1,0-11.415,9.178,9.178,0,0,1,3.659-3.716,10.911,10.911,0,0,1,5.366-1.289,10.34,10.34,0,0,1,6.712,2.142" transform="translate(-415.849 -64.786)"/><path d="M741.9,152.747l-7.509-9.291v9.291h-4.323V124.684h4.323v16.079l7.433-8.912h5.2l-9.1,10.391,9.329,10.5Z" transform="translate(-471.869 -48.772)"/><path d="M271.442,245.116v1.058h-5.793v4.995h5.013v1.021h-5.013v6.016h-1.318v-13.09Z" transform="translate(-146.406 -132.93)"/><rect width="1.318" height="13.74" transform="translate(127.134 111.536)"/><path d="M316.71,247.724v10.138h-1.3v-2.507A3.519,3.519,0,0,1,314,257.361a4.087,4.087,0,0,1-2.339.687,3.868,3.868,0,0,1-2.887-1.123,4.512,4.512,0,0,1-1.1-3.3v-5.9h1.3v5.793a3.573,3.573,0,0,0,.835,2.553,3,3,0,0,0,2.284.883,3.139,3.139,0,0,0,2.423-.975,4.089,4.089,0,0,0,.9-2.869v-5.385h1.3Zm-6.545-2.868a.791.791,0,0,1,.585-.232.8.8,0,0,1,.576.232.777.777,0,0,1,.242.584.824.824,0,0,1-.817.817.777.777,0,0,1-.585-.241.8.8,0,0,1-.232-.576.791.791,0,0,1,.232-.584m2.915,0a.769.769,0,0,1,.566-.232.793.793,0,0,1,.817.817.8.8,0,0,1-.232.576.778.778,0,0,1-.585.241.755.755,0,0,1-.566-.241.8.8,0,0,1-.232-.576.792.792,0,0,1,.232-.584" transform="translate(-176.69 -132.587)"/><path d="M353.68,255.508a4.229,4.229,0,0,1,1.55,2.711h-1.355a2.888,2.888,0,0,0-1.133-1.9,3.7,3.7,0,0,0-2.284-.7,3.75,3.75,0,0,0-1.81.445,3.224,3.224,0,0,0-1.318,1.364,5.416,5.416,0,0,0,0,4.512,3.23,3.23,0,0,0,1.318,1.365,3.764,3.764,0,0,0,1.81.445,3.7,3.7,0,0,0,2.284-.7,2.888,2.888,0,0,0,1.133-1.9h1.355a4.229,4.229,0,0,1-1.55,2.711,4.952,4.952,0,0,1-3.2,1.021,5.224,5.224,0,0,1-2.572-.622,4.358,4.358,0,0,1-1.755-1.8,6.422,6.422,0,0,1,0-5.552,4.357,4.357,0,0,1,1.755-1.8,5.22,5.22,0,0,1,2.572-.622,4.952,4.952,0,0,1,3.2,1.021" transform="translate(-203.141 -139.479)"/><path d="M393.467,247.5a4.514,4.514,0,0,1,1.1,3.3v5.9H393.29v-5.812a3.547,3.547,0,0,0-.835-2.535,3,3,0,0,0-2.284-.882,3.139,3.139,0,0,0-2.423.975,4.085,4.085,0,0,0-.9,2.868V256.7h-1.318v-13.74h1.318v6.091a3.523,3.523,0,0,1,1.411-1.987,4.1,4.1,0,0,1,2.339-.686,3.849,3.849,0,0,1,2.869,1.123" transform="translate(-231.1 -131.422)"/><path d="M426.824,257.96v1.151h-1.207a3.052,3.052,0,0,1-2.191-.7,3.167,3.167,0,0,1-.724-2.349v-5.96h-1.541v-1.133H422.7v-2.563h1.318v2.563h2.785v1.133h-2.785v5.979a2.123,2.123,0,0,0,.39,1.476,1.889,1.889,0,0,0,1.374.4Z" transform="translate(-256 -133.835)"/><rect width="1.318" height="13.74" transform="translate(172.959 111.536)"/><path d="M460.082,242.212a1.007,1.007,0,0,1,.7-.241.975.975,0,0,1,.687.241.846.846,0,0,1,.26.65.821.821,0,0,1-.26.631.968.968,0,0,1-.687.242,1,1,0,0,1-.7-.242.806.806,0,0,1-.27-.631.833.833,0,0,1,.27-.65m1.346,13.8h-1.318V245.871h1.318Z" transform="translate(-283.01 -130.733)"/><path d="M482.485,255.425a4.514,4.514,0,0,1,1.1,3.3v5.9h-1.281v-5.812a3.547,3.547,0,0,0-.835-2.535,3,3,0,0,0-2.284-.882,3.138,3.138,0,0,0-2.423.975,4.085,4.085,0,0,0-.9,2.868v5.385h-1.318V254.487h1.318v2.488a3.522,3.522,0,0,1,1.411-1.987,4.1,4.1,0,0,1,2.339-.686,3.85,3.85,0,0,1,2.869,1.123" transform="translate(-293.307 -139.35)"/><path d="M519.471,255.282a4.039,4.039,0,0,1,1.495,2.116v-2.785h1.282v10.379a5.012,5.012,0,0,1-.594,2.479A4.163,4.163,0,0,1,520,269.124a4.9,4.9,0,0,1-2.414.585,5.279,5.279,0,0,1-3.259-.956,4.413,4.413,0,0,1-1.662-2.591h1.3a3.265,3.265,0,0,0,1.235,1.764,3.855,3.855,0,0,0,2.312.649,3.7,3.7,0,0,0,1.754-.417,3.027,3.027,0,0,0,1.244-1.235,3.908,3.908,0,0,0,.455-1.931v-3.026a4.036,4.036,0,0,1-1.495,2.117,4.312,4.312,0,0,1-2.627.8,4.806,4.806,0,0,1-2.46-.631,4.309,4.309,0,0,1-1.69-1.811,6.645,6.645,0,0,1,0-5.533,4.264,4.264,0,0,1,1.68-1.8,4.847,4.847,0,0,1,2.47-.623,4.322,4.322,0,0,1,2.627.8m-5.032,1.439a4.772,4.772,0,0,0,0,5.924,3.6,3.6,0,0,0,2.739,1.086,3.792,3.792,0,0,0,1.94-.5,3.526,3.526,0,0,0,1.355-1.42,4.841,4.841,0,0,0,0-4.252,3.528,3.528,0,0,0-1.355-1.42,3.793,3.793,0,0,0-1.94-.5,3.6,3.6,0,0,0-2.739,1.087" transform="translate(-319.542 -139.475)"/><path d="M559.91,255.361a3.742,3.742,0,0,1,1.225,2.358h-1.244a2.515,2.515,0,0,0-.807-1.625,2.647,2.647,0,0,0-1.866-.641,2.317,2.317,0,0,0-1.569.492,1.649,1.649,0,0,0-.566,1.31,1.35,1.35,0,0,0,.362.984,2.365,2.365,0,0,0,.9.567,12.366,12.366,0,0,0,1.449.4,13.062,13.062,0,0,1,1.792.529,2.89,2.89,0,0,1,1.161.845,2.351,2.351,0,0,1,.483,1.56,2.484,2.484,0,0,1-.9,1.977,3.544,3.544,0,0,1-2.386.771,4.532,4.532,0,0,1-2.859-.863,3.452,3.452,0,0,1-1.318-2.367h1.262a2.387,2.387,0,0,0,.873,1.634,3.129,3.129,0,0,0,2.061.632,2.123,2.123,0,0,0,1.5-.5,1.7,1.7,0,0,0,.539-1.3,1.447,1.447,0,0,0-.371-1.04,2.319,2.319,0,0,0-.919-.585,14.748,14.748,0,0,0-1.495-.418,13.3,13.3,0,0,1-1.755-.52,2.8,2.8,0,0,1-1.123-.808,2.237,2.237,0,0,1-.464-1.495,2.486,2.486,0,0,1,.91-2.005,3.729,3.729,0,0,1,2.47-.761,3.9,3.9,0,0,1,2.655.872" transform="translate(-348.664 -139.48)"/><path d="M594.318,255.11a4.29,4.29,0,0,1,1.671,1.8,6.645,6.645,0,0,1,0,5.533,4.327,4.327,0,0,1-1.681,1.81,4.757,4.757,0,0,1-2.451.632,4.307,4.307,0,0,1-2.637-.8,4.058,4.058,0,0,1-1.485-2.117v7.576h-1.3V254.618h1.3V257.4a4.055,4.055,0,0,1,1.485-2.116,4.3,4.3,0,0,1,2.637-.8,4.79,4.79,0,0,1,2.46.622m-4.753,1.03a3.469,3.469,0,0,0-1.346,1.42,4.923,4.923,0,0,0,0,4.252,3.467,3.467,0,0,0,1.346,1.42,3.793,3.793,0,0,0,1.94.5,3.592,3.592,0,0,0,2.748-1.086,4.805,4.805,0,0,0,0-5.924,3.594,3.594,0,0,0-2.748-1.086,3.784,3.784,0,0,0-1.94.5" transform="translate(-371.495 -139.48)"/><path d="M630.673,254.9a4.557,4.557,0,0,1,2.4-.594v1.411h-.427a3.719,3.719,0,0,0-2.432.789,3.136,3.136,0,0,0-.966,2.572v5.552h-1.318V254.487h1.318v2.1a3.426,3.426,0,0,1,1.43-1.69" transform="translate(-400.488 -139.349)"/><path d="M656.791,255.109a4.448,4.448,0,0,1,1.792,1.8,6.235,6.235,0,0,1,0,5.543,4.521,4.521,0,0,1-1.792,1.8,5.645,5.645,0,0,1-5.19,0,4.542,4.542,0,0,1-1.81-1.81,6.134,6.134,0,0,1,0-5.533,4.483,4.483,0,0,1,1.81-1.8,5.378,5.378,0,0,1,2.6-.622,5.321,5.321,0,0,1,2.591.622m-4.447.956a3.347,3.347,0,0,0-1.374,1.364,4.521,4.521,0,0,0-.52,2.256,4.467,4.467,0,0,0,.52,2.247,3.36,3.36,0,0,0,1.374,1.356,3.95,3.95,0,0,0,1.857.445,3.859,3.859,0,0,0,1.829-.445,3.383,3.383,0,0,0,1.365-1.356,4.474,4.474,0,0,0,.52-2.247,4.524,4.524,0,0,0-.52-2.256,3.369,3.369,0,0,0-1.365-1.364,3.86,3.86,0,0,0-1.829-.445,3.943,3.943,0,0,0-1.857.445" transform="translate(-415.307 -139.479)"/><path d="M684.085,259.648h.706a1.437,1.437,0,0,0,1.031-.316,1.5,1.5,0,0,0,.325-1.1V245.87h1.3v12.44a2.216,2.216,0,0,1-2.525,2.489h-.836Zm2.015-16.154a.807.807,0,0,1-.269-.631.831.831,0,0,1,.269-.65,1,1,0,0,1,.7-.242.971.971,0,0,1,.687.242.846.846,0,0,1,.26.65.822.822,0,0,1-.26.631.967.967,0,0,1-.687.241,1,1,0,0,1-.7-.241" transform="translate(-439.733 -130.733)"/><path d="M710.216,263.119a2.757,2.757,0,0,0,1.114-1.857H712.7a4.128,4.128,0,0,1-1.541,2.619,4.978,4.978,0,0,1-3.194,1,5.219,5.219,0,0,1-2.572-.622,4.355,4.355,0,0,1-1.754-1.8,6.418,6.418,0,0,1,0-5.552,4.357,4.357,0,0,1,1.754-1.8,5.22,5.22,0,0,1,2.572-.623,5.087,5.087,0,0,1,2.571.623,4.221,4.221,0,0,1,1.652,1.662,4.66,4.66,0,0,1,.567,2.265,5.565,5.565,0,0,1-.074.947h-8.392a4.271,4.271,0,0,0,.529,2.144,3.189,3.189,0,0,0,1.327,1.272,3.889,3.889,0,0,0,1.764.408,3.759,3.759,0,0,0,2.3-.687m-4.048-7.167a3.224,3.224,0,0,0-1.328,1.253,4.258,4.258,0,0,0-.548,2.107h7.167a3.739,3.739,0,0,0-.409-2.1,3.037,3.037,0,0,0-1.3-1.263,4.139,4.139,0,0,0-3.584,0" transform="translate(-452.96 -139.477)"/><path d="M748.567,256.7l-4.1-4.642V256.7h-1.318v-13.74h1.318v8.059l4.029-4.457h1.616l-4.661,5.013,4.79,5.125Z" transform="translate(-481.005 -131.423)"/><path d="M773.961,257.96v1.151h-1.207a3.054,3.054,0,0,1-2.191-.7,3.166,3.166,0,0,1-.724-2.349v-5.96H768.3v-1.133h1.541v-2.563h1.318v2.563h2.785v1.133h-2.785v5.979a2.123,2.123,0,0,0,.39,1.476,1.888,1.888,0,0,0,1.374.4Z" transform="translate(-498.582 -133.835)"/></g></svg>